<?xml version="1.0" encoding="UTF-8" standalone="no"?>
<svg
   width="1920"
   height="1080"
   viewBox="0 0 1920 1080"
   version="1.1"
   id="svg9"
   xmlns:xlink="http://www.w3.org/1999/xlink"
   xmlns="http://www.w3.org/2000/svg"
   xmlns:svg="http://www.w3.org/2000/svg">
  <defs
     id="defs4">
    <linearGradient
       id="pillGradient"
       x1="0%"
       y1="0%"
       x2="100%"
       y2="0%">
      <stop
         offset="0%"
         style="stop-color:#b53fc4;stop-opacity:1"
         id="stop1" />
      <stop
         offset="100%"
         style="stop-color:#226dd1;stop-opacity:1"
         id="stop2" />
    </linearGradient>
    <clipPath
       id="guest1Clip">
      <circle
         cx="1580"
         cy="310"
         r="90"
         id="circle2" />
    </clipPath>
    <clipPath
       id="guest2Clip">
      <circle
         cx="1520"
         cy="500"
         r="90"
         id="circle3" />
    </clipPath>
    <clipPath
       id="guest3Clip">
      <circle
         cx="1460"
         cy="690"
         r="90"
         id="circle4" />
    </clipPath>
  </defs>
  <!-- Background -->
  <image
     xlink:href="__BACKGROUND__"
     x="0"
     y="0"
     width="1920"
     height="1080"
     preserveAspectRatio="xMidYMid slice"
     id="image4" />
  <!-- Pill Badge -->
  <rect
     x="50"
     y="50"
     width="550"
     height="170"
     rx="85"
     ry="85"
     fill="url(#pillGradient)"
     id="rect4" />
  <text
     x="325"
     y="115"
     font-family="Segoe UI, sans-serif"
     font-size="45"
     font-weight="600"
     fill="#ffffff"
     text-anchor="middle"
     id="text4a">
    __PILL_LINE_1__
  </text>
  <text
     x="325"
     y="165"
     font-family="Segoe UI, sans-serif"
     font-size="45"
     font-weight="600"
     fill="#ffffff"
     text-anchor="middle"
     id="text4b">
    __PILL_LINE_2__
  </text>
  <!-- Topic Text -->
  <text
     x="55"
     y="355"
     font-family="Segoe UI, sans-serif"
     font-size="120"
     font-weight="700"
     fill="#0f0f0f"
     id="text5">
    __TOPIC_LINE_1__
  </text>
  <text
     x="55"
     y="487"
     font-family="Segoe UI, sans-serif"
     font-size="120"
     font-weight="700"
     fill="#0f0f0f"
     id="text6">
    __TOPIC_LINE_2__
  </text>
  <text
     x="55"
     y="619"
     font-family="Segoe UI, sans-serif"
     font-size="120"
     font-weight="700"
     fill="#0f0f0f"
     id="text7">
    __TOPIC_LINE_3__
  </text>
  <!-- Guest 1 Circle (decorative border) -->
  <!-- Guest 1 Image -->
  <path
     style="fill:#bb03ec;fill-opacity:0.558233;stroke-width:10.2852"
     id="path9"
     d="M 1892.1491,274.9711 A 233.95391,233.95383 0 0 1 1658.2972,508.9249 233.95391,233.95383 0 0 1 1424.2414,275.17525 233.95391,233.95383 0 0 1 1657.8889,41.017471 233.95391,233.95383 0 0 1 1892.1487,274.56277" />
  <image
     xlink:href="__GUEST_1__"
     x="1490"
     y="220"
     width="180"
     height="180"
     clip-path="url(#guest1Clip)"
     preserveAspectRatio="xMidYMid slice"
     id="image7"
     transform="matrix(2.5994877,0,0,2.5994871,-2450.3646,-531.98601)" />
  <!-- Guest 2 Circle (decorative border) -->
  <!-- Guest 2 Image -->
  <path
     style="fill:#bb03ec;fill-opacity:0.558233;stroke-width:9.95866"
     id="path10"
     d="M 1509.7769,528.5321 A 226.74605,226.30615 0 0 1 1283.1298,754.83822 226.74605,226.30615 0 0 1 1056.2848,528.72958 226.74605,226.30615 0 0 1 1282.734,302.22615 226.74605,226.30615 0 0 1 1509.7765,528.13713" />
  <image
     xlink:href="__GUEST_2__"
     x="1430"
     y="410"
     width="180"
     height="180"
     clip-path="url(#guest2Clip)"
     preserveAspectRatio="xMidYMid slice"
     id="image8"
     transform="matrix(2.5194004,0,0,2.5145128,-2546.8165,-727.48578)" />
  <!-- Guest 3 Circle (decorative border) -->
  <!-- Guest 3 Image -->
  <path
     style="fill:#bb03ec;fill-opacity:0.558233;stroke-width:9.96175"
     id="path11"
     d="M 1836.2001,817.28711 A 226.62097,226.57123 0 0 1 1609.678,1043.8584 226.62097,226.57123 0 0 1 1382.9583,817.48483 226.62097,226.57123 0 0 1 1609.2825,590.71608 226.62097,226.57123 0 0 1 1836.1998,816.89168" />
  <image
     xlink:href="__GUEST_3__"
     x="1370"
     y="600"
     width="180"
     height="180"
     clip-path="url(#guest3Clip)"
     preserveAspectRatio="xMidYMid slice"
     id="image9"
     transform="matrix(2.5180106,0,0,2.5174582,-2066.1072,-920.46736)" />
</svg>
