<?xml version="1.0" encoding="UTF-8" standalone="no"?>
<svg
   width="1920"
   height="1080"
   viewBox="0 0 1920 1080"
   fill="none"
   version="1.1"
   id="svg35"
   sodipodi:docname="on-dotnet-thumbnai-one-guestl.svg"
   xml:space="preserve"
   inkscape:version="1.4.3 (0d15f75, 2025-12-25)"
   xmlns:inkscape="http://www.inkscape.org/namespaces/inkscape"
   xmlns:sodipodi="http://sodipodi.sourceforge.net/DTD/sodipodi-0.dtd"
   xmlns="http://www.w3.org/2000/svg"
   xmlns:svg="http://www.w3.org/2000/svg"><sodipodi:namedview
     id="namedview35"
     pagecolor="#505050"
     bordercolor="#eeeeee"
     borderopacity="1"
     inkscape:showpageshadow="0"
     inkscape:pageopacity="0"
     inkscape:pagecheckerboard="0"
     inkscape:deskcolor="#d1d1d1"
     showgrid="false"
     inkscape:zoom="0.21692708"
     inkscape:cx="852.82113"
     inkscape:cy="647.68307"
     inkscape:window-width="1920"
     inkscape:window-height="1009"
     inkscape:window-x="1912"
     inkscape:window-y="-5"
     inkscape:window-maximized="1"
     inkscape:current-layer="g108" /><defs
     id="defs35"><filter
       id="filter0_d_119_7"
       x="1898.9"
       y="-370.792"
       width="744.245"
       height="699.488"
       filterUnits="userSpaceOnUse"
       color-interpolation-filters="sRGB"><feFlood
         flood-opacity="0"
         result="BackgroundImageFix"
         id="feFlood16" /><feColorMatrix
         in="SourceAlpha"
         type="matrix"
         values="0 0 0 0 0 0 0 0 0 0 0 0 0 0 0 0 0 0 127 0"
         result="hardAlpha"
         id="feColorMatrix16" /><feOffset
         dx="10"
         dy="13"
         id="feOffset16" /><feGaussianBlur
         stdDeviation="3.5"
         id="feGaussianBlur16" /><feComposite
         in2="hardAlpha"
         operator="out"
         id="feComposite16" /><feColorMatrix
         type="matrix"
         values="0 0 0 0 0.819608 0 0 0 0 0.0980392 0 0 0 0 0.537255 0 0 0 0.25 0"
         id="feColorMatrix17" /><feBlend
         mode="normal"
         in2="BackgroundImageFix"
         result="effect1_dropShadow_119_7"
         id="feBlend17" /><feBlend
         mode="normal"
         in="SourceGraphic"
         in2="effect1_dropShadow_119_7"
         result="shape"
         id="feBlend18" /></filter><filter
       id="filter1_d_119_7"
       x="903.705"
       y="-2022.97"
       width="3051.12"
       height="2784.58"
       filterUnits="userSpaceOnUse"
       color-interpolation-filters="sRGB"><feFlood
         flood-opacity="0"
         result="BackgroundImageFix"
         id="feFlood18" /><feColorMatrix
         in="SourceAlpha"
         type="matrix"
         values="0 0 0 0 0 0 0 0 0 0 0 0 0 0 0 0 0 0 127 0"
         result="hardAlpha"
         id="feColorMatrix18" /><feOffset
         dx="-22"
         dy="6"
         id="feOffset18" /><feGaussianBlur
         stdDeviation="19"
         id="feGaussianBlur18" /><feComposite
         in2="hardAlpha"
         operator="out"
         id="feComposite18" /><feColorMatrix
         type="matrix"
         values="0 0 0 0 0 0 0 0 0 0 0 0 0 0 0 0 0 0 0.14 0"
         id="feColorMatrix19" /><feBlend
         mode="multiply"
         in2="BackgroundImageFix"
         result="effect1_dropShadow_119_7"
         id="feBlend19" /><feBlend
         mode="normal"
         in="SourceGraphic"
         in2="effect1_dropShadow_119_7"
         result="shape"
         id="feBlend20" /></filter><filter
       id="filter2_d_119_7"
       x="1174.94"
       y="-1256.28"
       width="2058.58"
       height="1869.53"
       filterUnits="userSpaceOnUse"
       color-interpolation-filters="sRGB"><feFlood
         flood-opacity="0"
         result="BackgroundImageFix"
         id="feFlood20" /><feColorMatrix
         in="SourceAlpha"
         type="matrix"
         values="0 0 0 0 0 0 0 0 0 0 0 0 0 0 0 0 0 0 127 0"
         result="hardAlpha"
         id="feColorMatrix20" /><feOffset
         dx="-22"
         dy="6"
         id="feOffset20" /><feGaussianBlur
         stdDeviation="19"
         id="feGaussianBlur20" /><feComposite
         in2="hardAlpha"
         operator="out"
         id="feComposite20" /><feColorMatrix
         type="matrix"
         values="0 0 0 0 0 0 0 0 0 0 0 0 0 0 0 0 0 0 0.14 0"
         id="feColorMatrix21" /><feBlend
         mode="multiply"
         in2="BackgroundImageFix"
         result="effect1_dropShadow_119_7"
         id="feBlend21" /><feBlend
         mode="normal"
         in="SourceGraphic"
         in2="effect1_dropShadow_119_7"
         result="shape"
         id="feBlend22" /></filter><filter
       id="filter3_d_119_7"
       x="1373.53"
       y="-1023.43"
       width="1702.02"
       height="1543.1"
       filterUnits="userSpaceOnUse"
       color-interpolation-filters="sRGB"><feFlood
         flood-opacity="0"
         result="BackgroundImageFix"
         id="feFlood22" /><feColorMatrix
         in="SourceAlpha"
         type="matrix"
         values="0 0 0 0 0 0 0 0 0 0 0 0 0 0 0 0 0 0 127 0"
         result="hardAlpha"
         id="feColorMatrix22" /><feOffset
         dx="-22"
         dy="6"
         id="feOffset22" /><feGaussianBlur
         stdDeviation="19"
         id="feGaussianBlur22" /><feComposite
         in2="hardAlpha"
         operator="out"
         id="feComposite22" /><feColorMatrix
         type="matrix"
         values="0 0 0 0 0 0 0 0 0 0 0 0 0 0 0 0 0 0 0.14 0"
         id="feColorMatrix23" /><feBlend
         mode="multiply"
         in2="BackgroundImageFix"
         result="effect1_dropShadow_119_7"
         id="feBlend23" /><feBlend
         mode="normal"
         in="SourceGraphic"
         in2="effect1_dropShadow_119_7"
         result="shape"
         id="feBlend24" /></filter><filter
       id="filter4_d_119_7"
       x="1514.59"
       y="-913.279"
       width="1544.67"
       height="1413.29"
       filterUnits="userSpaceOnUse"
       color-interpolation-filters="sRGB"><feFlood
         flood-opacity="0"
         result="BackgroundImageFix"
         id="feFlood24" /><feColorMatrix
         in="SourceAlpha"
         type="matrix"
         values="0 0 0 0 0 0 0 0 0 0 0 0 0 0 0 0 0 0 127 0"
         result="hardAlpha"
         id="feColorMatrix24" /><feOffset
         dx="-22"
         dy="6"
         id="feOffset24" /><feGaussianBlur
         stdDeviation="19"
         id="feGaussianBlur24" /><feComposite
         in2="hardAlpha"
         operator="out"
         id="feComposite24" /><feColorMatrix
         type="matrix"
         values="0 0 0 0 0 0 0 0 0 0 0 0 0 0 0 0 0 0 0.14 0"
         id="feColorMatrix25" /><feBlend
         mode="multiply"
         in2="BackgroundImageFix"
         result="effect1_dropShadow_119_7"
         id="feBlend25" /><feBlend
         mode="normal"
         in="SourceGraphic"
         in2="effect1_dropShadow_119_7"
         result="shape"
         id="feBlend26" /></filter><filter
       id="filter5_d_119_7"
       x="1579.17"
       y="-809.705"
       width="1404.41"
       height="1275.82"
       filterUnits="userSpaceOnUse"
       color-interpolation-filters="sRGB"><feFlood
         flood-opacity="0"
         result="BackgroundImageFix"
         id="feFlood26" /><feColorMatrix
         in="SourceAlpha"
         type="matrix"
         values="0 0 0 0 0 0 0 0 0 0 0 0 0 0 0 0 0 0 127 0"
         result="hardAlpha"
         id="feColorMatrix26" /><feOffset
         dx="-22"
         dy="6"
         id="feOffset26" /><feGaussianBlur
         stdDeviation="19"
         id="feGaussianBlur26" /><feComposite
         in2="hardAlpha"
         operator="out"
         id="feComposite26" /><feColorMatrix
         type="matrix"
         values="0 0 0 0 0 0 0 0 0 0 0 0 0 0 0 0 0 0 0.14 0"
         id="feColorMatrix27" /><feBlend
         mode="multiply"
         in2="BackgroundImageFix"
         result="effect1_dropShadow_119_7"
         id="feBlend27" /><feBlend
         mode="normal"
         in="SourceGraphic"
         in2="effect1_dropShadow_119_7"
         result="shape"
         id="feBlend28" /></filter><filter
       id="filter6_d_119_7"
       x="1640.11"
       y="-702.057"
       width="1191.62"
       height="1082.87"
       filterUnits="userSpaceOnUse"
       color-interpolation-filters="sRGB"><feFlood
         flood-opacity="0"
         result="BackgroundImageFix"
         id="feFlood28" /><feColorMatrix
         in="SourceAlpha"
         type="matrix"
         values="0 0 0 0 0 0 0 0 0 0 0 0 0 0 0 0 0 0 127 0"
         result="hardAlpha"
         id="feColorMatrix28" /><feOffset
         dx="-22"
         dy="6"
         id="feOffset28" /><feGaussianBlur
         stdDeviation="19"
         id="feGaussianBlur28" /><feComposite
         in2="hardAlpha"
         operator="out"
         id="feComposite28" /><feColorMatrix
         type="matrix"
         values="0 0 0 0 0 0 0 0 0 0 0 0 0 0 0 0 0 0 0.14 0"
         id="feColorMatrix29" /><feBlend
         mode="multiply"
         in2="BackgroundImageFix"
         result="effect1_dropShadow_119_7"
         id="feBlend29" /><feBlend
         mode="normal"
         in="SourceGraphic"
         in2="effect1_dropShadow_119_7"
         result="shape"
         id="feBlend30" /></filter><filter
       id="filter7_d_119_7"
       x="1782.16"
       y="-453.62"
       width="697.427"
       height="645.699"
       filterUnits="userSpaceOnUse"
       color-interpolation-filters="sRGB"><feFlood
         flood-opacity="0"
         result="BackgroundImageFix"
         id="feFlood30" /><feColorMatrix
         in="SourceAlpha"
         type="matrix"
         values="0 0 0 0 0 0 0 0 0 0 0 0 0 0 0 0 0 0 127 0"
         result="hardAlpha"
         id="feColorMatrix30" /><feOffset
         dx="-22"
         dy="6"
         id="feOffset30" /><feGaussianBlur
         stdDeviation="19"
         id="feGaussianBlur30" /><feComposite
         in2="hardAlpha"
         operator="out"
         id="feComposite30" /><feColorMatrix
         type="matrix"
         values="0 0 0 0 0 0 0 0 0 0 0 0 0 0 0 0 0 0 0.14 0"
         id="feColorMatrix31" /><feBlend
         mode="multiply"
         in2="BackgroundImageFix"
         result="effect1_dropShadow_119_7"
         id="feBlend31" /><feBlend
         mode="normal"
         in="SourceGraphic"
         in2="effect1_dropShadow_119_7"
         result="shape"
         id="feBlend32" /></filter><filter
       id="filter8_d_119_7"
       x="975.245"
       y="190.278"
       width="705.19"
       height="679.241"
       filterUnits="userSpaceOnUse"
       color-interpolation-filters="sRGB"><feFlood
         flood-opacity="0"
         result="BackgroundImageFix"
         id="feFlood32" /><feColorMatrix
         in="SourceAlpha"
         type="matrix"
         values="0 0 0 0 0 0 0 0 0 0 0 0 0 0 0 0 0 0 127 0"
         result="hardAlpha"
         id="feColorMatrix32" /><feOffset
         dx="-22"
         dy="6"
         id="feOffset32" /><feGaussianBlur
         stdDeviation="19"
         id="feGaussianBlur32" /><feComposite
         in2="hardAlpha"
         operator="out"
         id="feComposite32" /><feColorMatrix
         type="matrix"
         values="0 0 0 0 0 0 0 0 0 0 0 0 0 0 0 0 0 0 0.14 0"
         id="feColorMatrix33" /><feBlend
         mode="multiply"
         in2="BackgroundImageFix"
         result="effect1_dropShadow_119_7"
         id="feBlend33" /><feBlend
         mode="normal"
         in="SourceGraphic"
         in2="effect1_dropShadow_119_7"
         result="shape"
         id="feBlend34" /></filter><mask
       maskUnits="userSpaceOnUse"
       id="mask35"><g
         id="g36"><rect
           width="2560"
           height="1501.59"
           fill="#c4c4c4"
           id="rect35"
           x="0"
           y="0" /></g></mask><mask
       maskUnits="userSpaceOnUse"
       id="mask36"><g
         id="g37"><rect
           width="2560"
           height="1501.59"
           fill="#c4c4c4"
           id="rect36"
           x="0"
           y="0" /></g></mask><mask
       maskUnits="userSpaceOnUse"
       id="mask37"><g
         id="g38"><rect
           width="2560"
           height="1501.59"
           fill="#c4c4c4"
           id="rect37"
           x="0"
           y="0" /></g></mask><mask
       maskUnits="userSpaceOnUse"
       id="mask38"><g
         id="g39"><rect
           width="2560"
           height="1501.59"
           fill="#c4c4c4"
           id="rect38"
           x="0"
           y="0" /></g></mask><mask
       maskUnits="userSpaceOnUse"
       id="mask39"><g
         id="g40"><rect
           width="2560"
           height="1501.59"
           fill="#ffffff"
           id="rect39"
           x="0"
           y="0" /></g></mask><mask
       maskUnits="userSpaceOnUse"
       id="mask40"><g
         id="g41"><rect
           width="2560"
           height="1501.59"
           fill="#c4c4c4"
           id="rect40"
           x="0"
           y="0" /></g></mask><mask
       maskUnits="userSpaceOnUse"
       id="mask41"><g
         id="g42"><rect
           width="2560"
           height="1501.59"
           fill="#c4c4c4"
           id="rect41"
           x="0"
           y="0" /></g></mask><mask
       maskUnits="userSpaceOnUse"
       id="mask42"><g
         id="g43"><rect
           width="2560"
           height="1501.59"
           fill="#c4c4c4"
           id="rect42"
           x="0"
           y="0" /></g></mask><mask
       maskUnits="userSpaceOnUse"
       id="mask109"><g
         id="g110"
         transform="translate(-3.2596519,1082.2044)"><path
           d="m 1448.6997,-955.9544 c 130.29,-12.819 183,36.313 231.08,90.278 48.08,53.965 73.19,202.06 46.3,310.084 -26.9,108.023 -188.8,209.577 -333.58,238.438 -144.78,28.862 -193.35,-123.982 -284.94,-210.91 -91.59,-86.929 -15.83,-237.653 19.43,-296.311 35.27,-58.659 158.85,-115.555 321.71,-131.579 z"
           fill="#ffffff"
           id="path109" /></g></mask></defs><g
     id="g108"
     transform="translate(2.201575,1087.6657)"><rect
       style="fill:#190649;fill-opacity:1;stroke:#ffffff;stroke-width:4.40315;stroke-linecap:round;stroke-dasharray:none;stroke-opacity:1"
       id="rect55"
       width="1916.6753"
       height="1075.6852"
       x="0"
       y="-1085.4641" /><g
       filter="url(#filter8_d_119_7)"
       id="g54"
       transform="translate(0,-1078.9448)"><path
         d="m 1422.28,236.734 c 122.06,24.058 166.47,85.012 206.16,149.239 39.68,64.228 49.45,210.846 14.63,305.25 -34.81,94.404 -194.3,145.253 -331.27,132.303 -136.97,-12.95 -168.08,-170.556 -245.12,-277.939 -77.037,-107.382 7.02,-228.496 45.09,-274.027 38.08,-45.531 157.94,-64.898 310.51,-34.826 z"
         fill="#af1372"
         id="path54" /></g><g
       id="g46"
       transform="translate(-360.72029,-8.0672269)"><rect
         style="fill:#ee237b;fill-opacity:1;stroke-width:6.17141"
         id="rect44"
         width="191.50455"
         height="92.90007"
         x="502.99057"
         y="-889" /><rect
         style="fill:#512cd4;fill-opacity:1;stroke-width:6.17141"
         id="rect45"
         width="191.50455"
         height="92.900078"
         x="502.80133"
         y="-981.97015" /></g><text
       xml:space="preserve"
       style="font-size:70.6667px;line-height:1.25;font-family:'Segoe UI';-inkscape-font-specification:'Segoe UI';letter-spacing:0px;word-spacing:0px"
       x="167.68309"
       y="-829.19568"
       id="text45"><tspan
         sodipodi:role="line"
         id="tspan45"
         x="167.68309"
         y="-829.19568"
         style="font-style:normal;font-variant:normal;font-weight:600;font-stretch:normal;font-size:70.6667px;font-family:'Segoe UI';-inkscape-font-specification:'Segoe UI Semi-Bold';fill:#ffffff;fill-opacity:1">LIVE</tspan></text><text
       xml:space="preserve"
       style="font-size:40px;line-height:1.25;font-family:'Segoe UI';-inkscape-font-specification:'Segoe UI';letter-spacing:0.28px;word-spacing:2.74px"
       x="159.0396"
       y="-933.20532"
       id="text46"><tspan
         sodipodi:role="line"
         id="tspan46"
         x="159.0396"
         y="-933.20532"
         style="font-style:normal;font-variant:normal;font-weight:600;font-stretch:normal;font-size:40px;font-family:'Segoe UI';-inkscape-font-specification:'Segoe UI Semi-Bold';letter-spacing:0.28px;word-spacing:2.74px;fill:#ffffff;fill-opacity:1">On .NET</tspan></text><g
       id="g48"><path
         style="fill:none;stroke:#ffffff;stroke-width:4.40315;stroke-linecap:round;stroke-linejoin:miter;stroke-dasharray:none;stroke-opacity:1"
         d="m 65.193038,-938.98348 c -16.707614,25.29259 -15.038219,55.7414 0.814913,75.99064"
         id="path46"
         sodipodi:nodetypes="cc" /><path
         style="fill:none;stroke:#ffffff;stroke-width:4.40315;stroke-linecap:round;stroke-linejoin:miter;stroke-dasharray:none;stroke-opacity:1"
         d="m 82.07576,-922.55704 c -10.441271,14.35789 -9.397998,31.64283 0.509272,43.13776"
         id="path47"
         sodipodi:nodetypes="cc" /><path
         style="fill:none;stroke:#ffffff;stroke-width:4.40315;stroke-linecap:round;stroke-linejoin:miter;stroke-dasharray:none;stroke-opacity:1"
         d="m 98.637696,-910.1902 c -4.13091,6.12559 -3.718156,13.49993 0.201485,18.40408"
         id="path48"
         sodipodi:nodetypes="cc" /></g><g
       id="g51"
       transform="matrix(-1,0,0,1,474.30963,-0.40745649)"><path
         style="fill:none;stroke:#ffffff;stroke-width:4.40315;stroke-linecap:round;stroke-linejoin:miter;stroke-dasharray:none;stroke-opacity:1"
         d="m 65.193038,-938.98348 c -16.707614,25.29259 -15.038219,55.7414 0.814913,75.99064"
         id="path49"
         sodipodi:nodetypes="cc" /><path
         style="fill:none;stroke:#ffffff;stroke-width:4.40315;stroke-linecap:round;stroke-linejoin:miter;stroke-dasharray:none;stroke-opacity:1"
         d="m 82.07576,-922.55704 c -10.441271,14.35789 -9.397998,31.64283 0.509272,43.13776"
         id="path50"
         sodipodi:nodetypes="cc" /><path
         style="fill:none;stroke:#ffffff;stroke-width:4.40315;stroke-linecap:round;stroke-linejoin:miter;stroke-dasharray:none;stroke-opacity:1"
         d="m 98.637696,-910.1902 c -4.13091,6.12559 -3.718156,13.49993 0.201485,18.40408"
         id="path51"
         sodipodi:nodetypes="cc" /></g><text
       xml:space="preserve"
       style="font-size:49.3333px;line-height:1.25;font-family:'Segoe UI';-inkscape-font-specification:'Segoe UI';letter-spacing:0px;word-spacing:0px"
       x="78.367348"
       y="-705.30609"
       id="text51"><tspan
         sodipodi:role="line"
         id="tspan51"
         x="78.367348"
         y="-705.30609"
         style="font-style:normal;font-variant:normal;font-weight:600;font-stretch:normal;font-size:49.3333px;font-family:'Segoe UI';-inkscape-font-specification:'Segoe UI Semi-Bold';fill:#ffffff;fill-opacity:1">This week:</tspan></text><text
       xml:space="preserve"
       style="font-size:88px;line-height:1.25;font-family:'Segoe UI';-inkscape-font-specification:'Segoe UI';letter-spacing:0px;word-spacing:0px"
       x="85.282112"
       y="-550.96814"
       id="text52"><tspan
         sodipodi:role="line"
         id="tspan52"
         x="85.282112"
         y="-550.96814"
         style="font-style:normal;font-variant:normal;font-weight:600;font-stretch:normal;font-size:88px;font-family:'Segoe UI';-inkscape-font-specification:'Segoe UI Semi-Bold';fill:#ffffff;fill-opacity:1">__TITLE_LINE_1__</tspan></text><text
       xml:space="preserve"
       style="font-size:88px;line-height:1.25;font-family:'Segoe UI';-inkscape-font-specification:'Segoe UI';letter-spacing:0px;word-spacing:0px"
       x="85.282112"
       y="-440.96814"
       id="text52b"><tspan
         sodipodi:role="line"
         id="tspan52b"
         x="85.282112"
         y="-440.96814"
         style="font-style:normal;font-variant:normal;font-weight:600;font-stretch:normal;font-size:88px;font-family:'Segoe UI';-inkscape-font-specification:'Segoe UI Semi-Bold';fill:#ffffff;fill-opacity:1">__TITLE_LINE_2__</tspan></text><text
       xml:space="preserve"
       style="font-size:88px;line-height:1.25;font-family:'Segoe UI';-inkscape-font-specification:'Segoe UI';letter-spacing:0px;word-spacing:0px"
       x="85.282112"
       y="-330.96814"
       id="text52c"><tspan
         sodipodi:role="line"
         id="tspan52c"
         x="85.282112"
         y="-330.96814"
         style="font-style:normal;font-variant:normal;font-weight:600;font-stretch:normal;font-size:88px;font-family:'Segoe UI';-inkscape-font-specification:'Segoe UI Semi-Bold';fill:#ffffff;fill-opacity:1">__TITLE_LINE_3__</tspan></text><text
       xml:space="preserve"
       style="font-size:49.3333px;line-height:1.25;font-family:'Segoe UI';-inkscape-font-specification:'Segoe UI';letter-spacing:0px;word-spacing:0px"
       x="81.626999"
       y="-151.16527"
       id="text53"><tspan
         sodipodi:role="line"
         id="tspan53"
         x="81.626999"
         y="-151.16527"
         style="font-style:normal;font-variant:normal;font-weight:normal;font-stretch:normal;font-size:49.3333px;font-family:'Segoe UI';-inkscape-font-specification:'Segoe UI';fill:#ffffff;fill-opacity:1">with:</tspan></text><text
       xml:space="preserve"
       style="font-size:49.3333px;line-height:1.25;font-family:'Segoe UI';-inkscape-font-specification:'Segoe UI';letter-spacing:0px;word-spacing:0px"
       x="188.67621"
       y="-151.16527"
       id="text54"><tspan
         sodipodi:role="line"
         id="tspan54"
         x="188.67621"
         y="-151.16527"
         style="font-style:normal;font-variant:normal;font-weight:600;font-stretch:normal;font-size:49.3333px;font-family:'Segoe UI';-inkscape-font-specification:'Segoe UI Semi-Bold';fill:#ffffff;fill-opacity:1">__GUEST_1_NAME__</tspan></text><text
       xml:space="preserve"
       style="font-size:49.3333px;line-height:1.25;font-family:'Segoe UI';-inkscape-font-specification:'Segoe UI';letter-spacing:1.14px;word-spacing:0px"
       x="1058.2417"
       y="-153.47018"
       id="textDay"><tspan
         id="tspanDay"
         x="1058.2417"
         y="-153.47018"
         style="font-style:normal;font-variant:normal;font-weight:600;font-stretch:normal;font-size:49.3333px;font-family:'Segoe UI';-inkscape-font-specification:'Segoe UI Semi-Bold';letter-spacing:1.14px;fill:#ffffff;fill-opacity:1">__DAY__</tspan></text><text
       xml:space="preserve"
       style="font-size:49.3333px;line-height:1.25;font-family:'Segoe UI';-inkscape-font-specification:'Segoe UI';letter-spacing:1.14px;word-spacing:0px"
       x="1298.2417"
       y="-153.47018"
       id="textTime"><tspan
         id="tspanTime"
         x="1298.2417"
         y="-153.47018"
         style="font-style:normal;font-variant:normal;font-weight:normal;font-stretch:normal;font-size:49.3333px;font-family:'Segoe UI';-inkscape-font-specification:'Segoe UI';letter-spacing:1.14px;fill:#ffffff;fill-opacity:1">__TIME__</tspan></text><path
       style="fill:none;stroke:#ffffff;stroke-width:3;stroke-linecap:butt;stroke-linejoin:miter;stroke-opacity:1;stroke-dasharray:none"
       d="m 1272.9335,-190.85395 v 48.99664"
       id="pathDayTimeSeparator" /><g
       id="g107"
       transform="translate(52.15443,1786.2892)"><g
         filter="url(#filter0_d_119_7)"
         id="g77"
         mask="url(#mask42)"
         transform="translate(-13.038608,-2868.4937)"><path
           d="m 2410.12,-323.989 c 136.73,47.425 173.27,121.214 203.45,197.721 30.17,76.5058 4.48,237.005 -60.16,333.148 -64.64,96.143 -264.14,123.288 -421.14,85.282 -156.99,-38.007 -153.49,-214.1405 -216.46,-343.9246 -62.96,-129.7844 66.06,-246.2334 122.15,-288.8764 56.08,-42.644 201.24,-42.631 372.16,16.65 z"
           fill="#f63a6a"
           id="path77" /></g><g
         filter="url(#filter1_d_119_7)"
         id="g78"
         mask="url(#mask41)"
         transform="translate(-13.038608,-2868.4937)"><path
           d="m 2406.84,-1959.38 c 559.05,-106.34 828.24,73.57 1081.05,275.22 252.81,201.65 479.85,799.093 447.93,1253.527 C 3903.91,23.8021 3277.07,507.36 2667.42,685.522 2057.77,863.684 1724.47,256.428 1255.46,-62.5657 786.458,-381.559 998.013,-1031.39 1105.6,-1286.68 c 107.59,-255.28 602.43,-539.76 1301.24,-672.7 z"
           fill="#3e16a7"
           id="path78" /></g><g
         filter="url(#filter2_d_119_7)"
         id="g79"
         mask="url(#mask40)"
         transform="translate(-13.038608,-2868.4937)"><path
           d="m 2306.41,-1221.28 c 381.05,-25.53 545.79,116.14 697.86,270.973 152.08,154.829 254.89,571.24 196.79,871.3882 -58.1,300.1488 -514.88,571.4718 -935.47,640.7378 -420.58,69.267 -593.39,-362.294 -879.97,-612.8207 -286.58,-250.5273 -92.97,-666.2833 -0.6,-827.6283 92.37,-161.35 445.08,-310.75 921.39,-342.65 z"
           fill="#5424d0"
           id="path79" /></g><g
         filter="url(#filter3_d_119_7)"
         id="g80"
         mask="url(#mask39)"
         transform="translate(-13.038608,-2868.4937)"><path
           d="m 2349.07,-991.275 c 314.27,-5.188 443.81,118.092 562.39,251.66 118.58,133.567 185.83,480.105 125.64,724.4096 -60.2,244.3044 -446.91,448.3904 -795.48,487.8934 -348.58,39.503 -472.74,-322.39 -697.91,-540.1932 -225.18,-217.8038 -48.81,-551.5178 33.81,-680.3098 82.61,-128.791 378.72,-236.974 771.55,-243.46 z"
           fill="#7723bc"
           id="path80" /></g><g
         filter="url(#filter4_d_119_7)"
         id="g81"
         mask="url(#mask38)"
         transform="translate(-13.038608,-2868.4937)"><path
           d="m 2284.96,-865.222 c 275.78,-53.322 408.91,35.077 533.99,134.231 125.08,99.153 238.03,393.701 222.95,618.048 C 3026.83,111.403 2718.15,351.01 2417.51,439.853 2116.86,528.697 1951.45,229.465 1719.49,72.7143 1487.52,-84.0361 1590.97,-405.094 1643.7,-531.258 c 52.72,-126.163 296.54,-267.312 641.26,-333.964 z"
           fill="#8821b2"
           id="path81" /></g><g
         filter="url(#filter5_d_119_7)"
         id="g82"
         mask="url(#mask37)"
         transform="translate(-13.038608,-2868.4937)"><path
           d="m 2478.38,-759.707 c 257.2,37.48 346.58,155.3 425.64,280.062 79.06,124.762 87.95,416.5447 6.39,607.964 -81.56,191.42 -424.3,306.671 -714.06,292.646 -289.76,-14.025 -343.07,-325.8933 -497.96,-533.561 -154.88,-207.668 33.38,-456.645 117.9,-550.804 84.53,-94.159 340.58,-143.157 662.09,-96.307 z"
           fill="#d11989"
           id="path82" /></g><g
         filter="url(#filter6_d_119_7)"
         id="g83"
         mask="url(#mask36)"
         transform="translate(-13.038608,-2868.4937)"><path
           d="m 2400.48,-656.842 c 216.14,29.348 292.1,127.483 359.46,231.529 67.36,104.046 77.21,348.8176 10.33,510.1109 -66.87,161.2931 -353.53,260.8071 -596.79,251.4071 -243.27,-9.4 -290.55,-270.6636 -422.22,-443.658 -131.67,-172.995 24.27,-383.459 94.43,-463.162 70.16,-79.703 284.62,-122.912 554.79,-86.227 z"
           fill="#f61474"
           id="path83" /></g><g
         filter="url(#filter7_d_119_7)"
         id="g84"
         mask="url(#mask35)"
         transform="translate(-13.038608,-2868.4937)"><path
           d="m 2256.31,-405.132 c 118.53,25.295 157.35,33.578 190.17,145.313 33.08,112.583 12.35,135.261 -13.21,258.83655 C 2407.72,122.593 2220.09,160.393 2083.28,144.735 c -136.81,-15.657 -152.35,-165.0307 -219.25,-268.21 -66.9,-103.18 28.72,-330.768 164.19,-294.211 135.46,36.558 74.55,-20.217 225.38,11.976 z"
           fill="#f65163"
           id="path84" /></g><g
         filter="url(#filter0_d_119_7)"
         id="g87"
         mask="url(#mask42)"
         transform="translate(-13.038608,-2868.4937)"><path
           d="m 2410.12,-323.989 c 136.73,47.425 173.27,121.214 203.45,197.721 30.17,76.5058 4.48,237.005 -60.16,333.148 -64.64,96.143 -264.14,123.288 -421.14,85.282 -156.99,-38.007 -153.49,-214.1405 -216.46,-343.9246 -62.96,-129.7844 66.06,-246.2334 122.15,-288.8764 56.08,-42.644 201.24,-42.631 372.16,16.65 z"
           fill="#f63a6a"
           id="path87" /></g><g
         filter="url(#filter1_d_119_7)"
         id="g88"
         mask="url(#mask41)"
         transform="translate(-13.038608,-2868.4937)"><path
           d="m 2406.84,-1959.38 c 559.05,-106.34 828.24,73.57 1081.05,275.22 252.81,201.65 479.85,799.093 447.93,1253.527 C 3903.91,23.8021 3277.07,507.36 2667.42,685.522 2057.77,863.684 1724.47,256.428 1255.46,-62.5657 786.458,-381.559 998.013,-1031.39 1105.6,-1286.68 c 107.59,-255.28 602.43,-539.76 1301.24,-672.7 z"
           fill="#3e16a7"
           id="path88" /></g><g
         filter="url(#filter2_d_119_7)"
         id="g89"
         mask="url(#mask40)"
         transform="translate(-13.038608,-2868.4937)"><path
           d="m 2306.41,-1221.28 c 381.05,-25.53 545.79,116.14 697.86,270.973 152.08,154.829 254.89,571.24 196.79,871.3882 -58.1,300.1488 -514.88,571.4718 -935.47,640.7378 -420.58,69.267 -593.39,-362.294 -879.97,-612.8207 -286.58,-250.5273 -92.97,-666.2833 -0.6,-827.6283 92.37,-161.35 445.08,-310.75 921.39,-342.65 z"
           fill="#5424d0"
           id="path89" /></g><g
         filter="url(#filter3_d_119_7)"
         id="g90"
         mask="url(#mask39)"
         transform="translate(-13.038608,-2868.4937)"><path
           d="m 2349.07,-991.275 c 314.27,-5.188 443.81,118.092 562.39,251.66 118.58,133.567 185.83,480.105 125.64,724.4096 -60.2,244.3044 -446.91,448.3904 -795.48,487.8934 -348.58,39.503 -472.74,-322.39 -697.91,-540.1932 -225.18,-217.8038 -48.81,-551.5178 33.81,-680.3098 82.61,-128.791 378.72,-236.974 771.55,-243.46 z"
           fill="#7723bc"
           id="path90" /></g><g
         filter="url(#filter4_d_119_7)"
         id="g91"
         mask="url(#mask38)"
         transform="translate(-13.038608,-2868.4937)"><path
           d="m 2284.96,-865.222 c 275.78,-53.322 408.91,35.077 533.99,134.231 125.08,99.153 238.03,393.701 222.95,618.048 C 3026.83,111.403 2718.15,351.01 2417.51,439.853 2116.86,528.697 1951.45,229.465 1719.49,72.7143 1487.52,-84.0361 1590.97,-405.094 1643.7,-531.258 c 52.72,-126.163 296.54,-267.312 641.26,-333.964 z"
           fill="#8821b2"
           id="path91" /></g><g
         filter="url(#filter5_d_119_7)"
         id="g92"
         mask="url(#mask37)"
         transform="translate(-13.038608,-2868.4937)"><path
           d="m 2478.38,-759.707 c 257.2,37.48 346.58,155.3 425.64,280.062 79.06,124.762 87.95,416.5447 6.39,607.964 -81.56,191.42 -424.3,306.671 -714.06,292.646 -289.76,-14.025 -343.07,-325.8933 -497.96,-533.561 -154.88,-207.668 33.38,-456.645 117.9,-550.804 84.53,-94.159 340.58,-143.157 662.09,-96.307 z"
           fill="#d11989"
           id="path92" /></g><g
         filter="url(#filter6_d_119_7)"
         id="g93"
         mask="url(#mask36)"
         transform="translate(-13.038608,-2868.4937)"><path
           d="m 2400.48,-656.842 c 216.14,29.348 292.1,127.483 359.46,231.529 67.36,104.046 77.21,348.8176 10.33,510.1109 -66.87,161.2931 -353.53,260.8071 -596.79,251.4071 -243.27,-9.4 -290.55,-270.6636 -422.22,-443.658 -131.67,-172.995 24.27,-383.459 94.43,-463.162 70.16,-79.703 284.62,-122.912 554.79,-86.227 z"
           fill="#f61474"
           id="path93" /></g><g
         filter="url(#filter7_d_119_7)"
         id="g94"
         mask="url(#mask35)"
         transform="translate(-13.038608,-2868.4937)"><path
           d="m 2256.31,-405.132 c 118.53,25.295 157.35,33.578 190.17,145.313 33.08,112.583 12.35,135.261 -13.21,258.83655 C 2407.72,122.593 2220.09,160.393 2083.28,144.735 c -136.81,-15.657 -152.35,-165.0307 -219.25,-268.21 -66.9,-103.18 28.72,-330.768 164.19,-294.211 135.46,36.558 74.55,-20.217 225.38,11.976 z"
           fill="#f65163"
           id="path94" /></g><g
         filter="url(#filter0_d_119_7)"
         id="g97"
         mask="url(#mask42)"
         transform="translate(-13.038608,-2868.4937)"><path
           d="m 2410.12,-323.989 c 136.73,47.425 173.27,121.214 203.45,197.721 30.17,76.5058 4.48,237.005 -60.16,333.148 -64.64,96.143 -264.14,123.288 -421.14,85.282 -156.99,-38.007 -153.49,-214.1405 -216.46,-343.9246 -62.96,-129.7844 66.06,-246.2334 122.15,-288.8764 56.08,-42.644 201.24,-42.631 372.16,16.65 z"
           fill="#f63a6a"
           id="path97" /></g><g
         filter="url(#filter1_d_119_7)"
         id="g98"
         mask="url(#mask41)"
         transform="translate(-13.038608,-2868.4937)"><path
           d="m 2406.84,-1959.38 c 559.05,-106.34 828.24,73.57 1081.05,275.22 252.81,201.65 479.85,799.093 447.93,1253.527 C 3903.91,23.8021 3277.07,507.36 2667.42,685.522 2057.77,863.684 1724.47,256.428 1255.46,-62.5657 786.458,-381.559 998.013,-1031.39 1105.6,-1286.68 c 107.59,-255.28 602.43,-539.76 1301.24,-672.7 z"
           fill="#3e16a7"
           id="path98" /></g><g
         filter="url(#filter2_d_119_7)"
         id="g99"
         mask="url(#mask40)"
         transform="translate(-13.038608,-2868.4937)"><path
           d="m 2306.41,-1221.28 c 381.05,-25.53 545.79,116.14 697.86,270.973 152.08,154.829 254.89,571.24 196.79,871.3882 -58.1,300.1488 -514.88,571.4718 -935.47,640.7378 -420.58,69.267 -593.39,-362.294 -879.97,-612.8207 -286.58,-250.5273 -92.97,-666.2833 -0.6,-827.6283 92.37,-161.35 445.08,-310.75 921.39,-342.65 z"
           fill="#5424d0"
           id="path99" /></g><g
         filter="url(#filter3_d_119_7)"
         id="g100"
         mask="url(#mask39)"
         transform="translate(-13.038608,-2868.4937)"><path
           d="m 2349.07,-991.275 c 314.27,-5.188 443.81,118.092 562.39,251.66 118.58,133.567 185.83,480.105 125.64,724.4096 -60.2,244.3044 -446.91,448.3904 -795.48,487.8934 -348.58,39.503 -472.74,-322.39 -697.91,-540.1932 -225.18,-217.8038 -48.81,-551.5178 33.81,-680.3098 82.61,-128.791 378.72,-236.974 771.55,-243.46 z"
           fill="#7723bc"
           id="path100" /></g><g
         filter="url(#filter4_d_119_7)"
         id="g101"
         mask="url(#mask38)"
         transform="translate(-13.038608,-2868.4937)"><path
           d="m 2284.96,-865.222 c 275.78,-53.322 408.91,35.077 533.99,134.231 125.08,99.153 238.03,393.701 222.95,618.048 C 3026.83,111.403 2718.15,351.01 2417.51,439.853 2116.86,528.697 1951.45,229.465 1719.49,72.7143 1487.52,-84.0361 1590.97,-405.094 1643.7,-531.258 c 52.72,-126.163 296.54,-267.312 641.26,-333.964 z"
           fill="#8821b2"
           id="path101" /></g><g
         filter="url(#filter5_d_119_7)"
         id="g102"
         mask="url(#mask37)"
         transform="translate(-13.038608,-2868.4937)"><path
           d="m 2478.38,-759.707 c 257.2,37.48 346.58,155.3 425.64,280.062 79.06,124.762 87.95,416.5447 6.39,607.964 -81.56,191.42 -424.3,306.671 -714.06,292.646 -289.76,-14.025 -343.07,-325.8933 -497.96,-533.561 -154.88,-207.668 33.38,-456.645 117.9,-550.804 84.53,-94.159 340.58,-143.157 662.09,-96.307 z"
           fill="#d11989"
           id="path102" /></g><g
         filter="url(#filter6_d_119_7)"
         id="g103"
         mask="url(#mask36)"
         transform="translate(-13.038608,-2868.4937)"><path
           d="m 2400.48,-656.842 c 216.14,29.348 292.1,127.483 359.46,231.529 67.36,104.046 77.21,348.8176 10.33,510.1109 -66.87,161.2931 -353.53,260.8071 -596.79,251.4071 -243.27,-9.4 -290.55,-270.6636 -422.22,-443.658 -131.67,-172.995 24.27,-383.459 94.43,-463.162 70.16,-79.703 284.62,-122.912 554.79,-86.227 z"
           fill="#f61474"
           id="path103" /></g><g
         filter="url(#filter7_d_119_7)"
         id="g104"
         mask="url(#mask35)"
         transform="translate(-13.038608,-2868.4937)"><path
           d="m 2256.31,-405.132 c 118.53,25.295 157.35,33.578 190.17,145.313 33.08,112.583 12.35,135.261 -13.21,258.83655 C 2407.72,122.593 2220.09,160.393 2083.28,144.735 c -136.81,-15.657 -152.35,-165.0307 -219.25,-268.21 -66.9,-103.18 28.72,-330.768 164.19,-294.211 135.46,36.558 74.55,-20.217 225.38,11.976 z"
           fill="#f65163"
             id="path104" /></g></g><image
           href="__GUEST_1__"
           x="1029.5387731"
           y="79.2887"
           width="724.5"
           height="724.5"
           id="guest1Image"
           transform="translate(3.2596519,-1082.2044)"
           mask="url(#mask109)"
           preserveAspectRatio="xMidYMid slice" /></g></svg>
