<?xml version="1.0" encoding="UTF-8" standalone="no"?>
<svg
   width="172.5459"
   height="162.58044"
   viewBox="0 0 172.5459 162.58044"
   fill="none"
   version="1.1"
   id="svg44"
   sodipodi:docname="azure.svg"
   xml:space="preserve"
   inkscape:export-filename="improving-github-copilot-completions-in-visual-studio.jpg"
   inkscape:export-xdpi="96"
   inkscape:export-ydpi="96"
   inkscape:version="1.4.3 (0d15f75, 2025-12-25)"
   xmlns:inkscape="http://www.inkscape.org/namespaces/inkscape"
   xmlns:sodipodi="http://sodipodi.sourceforge.net/DTD/sodipodi-0.dtd"
   xmlns:xlink="http://www.w3.org/1999/xlink"
   xmlns="http://www.w3.org/2000/svg"
   xmlns:svg="http://www.w3.org/2000/svg"><sodipodi:namedview
     id="namedview44"
     pagecolor="#505050"
     bordercolor="#eeeeee"
     borderopacity="1"
     inkscape:showpageshadow="0"
     inkscape:pageopacity="0"
     inkscape:pagecheckerboard="0"
     inkscape:deskcolor="#d1d1d1"
     inkscape:zoom="0.37049448"
     inkscape:cx="-383.27157"
     inkscape:cy="330.6392"
     inkscape:window-width="1920"
     inkscape:window-height="1009"
     inkscape:window-x="3832"
     inkscape:window-y="-8"
     inkscape:window-maximized="1"
     inkscape:current-layer="svg44"
     showgrid="false"><inkscape:grid
       id="grid248"
       units="px"
       originx="3579.2654"
       originy="1578.7561"
       spacingx="1"
       spacingy="1"
       empcolor="#3f3fff"
       empopacity="0.25098039"
       color="#3f3fff"
       opacity="0.12549"
       empspacing="5"
       enabled="true"
       visible="false" /><inkscape:page
       x="0"
       y="0"
       width="172.5459"
       height="162.58044"
       id="page2"
       margin="0"
       bleed="0" /></sodipodi:namedview><defs
     id="defs44"><linearGradient
       id="paint0_linear_2550_7118"
       x1="47.366299"
       y1="14.3281"
       x2="17.593201"
       y2="102.285"
       gradientUnits="userSpaceOnUse"><stop
         stop-color="#114A8B"
         id="stop4" /><stop
         offset="1"
         stop-color="#0669BC"
         id="stop5" /></linearGradient><linearGradient
       id="paint1_linear_2550_7118"
       x1="56.666801"
       y1="55.318298"
       x2="49.779598"
       y2="57.647099"
       gradientUnits="userSpaceOnUse"><stop
         stop-opacity="0.3"
         id="stop6" /><stop
         offset="0.0712"
         stop-opacity="0.2"
         id="stop7" /><stop
         offset="0.321"
         stop-opacity="0.1"
         id="stop8" /><stop
         offset="0.6231"
         stop-opacity="0.05"
         id="stop9" /><stop
         offset="1"
         stop-opacity="0"
         id="stop10" /></linearGradient><linearGradient
       id="paint2_linear_2550_7118"
       x1="52.879398"
       y1="11.762"
       x2="85.560898"
       y2="98.833504"
       gradientUnits="userSpaceOnUse"><stop
         stop-color="#3CCBF4"
         id="stop11-4" /><stop
         offset="1"
         stop-color="#2892DF"
         id="stop12-3" /></linearGradient><linearGradient
       inkscape:collect="always"
       xlink:href="#paint0_linear_2550_7118"
       id="linearGradient31"
       gradientUnits="userSpaceOnUse"
       x1="47.366299"
       y1="14.3281"
       x2="17.593201"
       y2="102.285" /><linearGradient
       inkscape:collect="always"
       xlink:href="#paint1_linear_2550_7118"
       id="linearGradient32"
       gradientUnits="userSpaceOnUse"
       x1="56.666801"
       y1="55.318298"
       x2="49.779598"
       y2="57.647099" /><linearGradient
       inkscape:collect="always"
       xlink:href="#paint2_linear_2550_7118"
       id="linearGradient33"
       gradientUnits="userSpaceOnUse"
       x1="52.879398"
       y1="11.762"
       x2="85.560898"
       y2="98.833504" /></defs><style
     type="text/css"
     id="style1">
	.st0{fill:#1B1F24;}
</style><style
     type="text/css"
     id="style2">
	.st0{fill:#3999C6;}
	.st1{fill:#FCD116;}
	.st2{opacity:0.3;fill:#FF8C00;enable-background:new    ;}
	.st3{font-family:'HelveticaNeue-Medium';}
	.st4{font-size:31.8596px;}
</style><g
     style="fill:none"
     id="g31"
     transform="matrix(1.7809618,0,0,1.7809616,-8.2265515,-13.470254)"><path
       d="M 36.9173,7.56348 H 65.5861 L 35.826,95.7413 c -0.3059,0.9063 -0.8884,1.6938 -1.6655,2.2517 -0.777,0.5578 -1.7095,0.8579 -2.6661,0.8579 H 9.18353 C 8.45886,98.8509 7.7446,98.6784 7.09984,98.3476 6.45508,98.0168 5.89835,97.5372 5.47572,96.9486 5.05309,96.3599 4.7767,95.6791 4.66943,94.9624 4.56215,94.2457 4.62707,93.5138 4.85881,92.8271 L 32.5858,10.673 c 0.3059,-0.90631 0.8884,-1.69383 1.6654,-2.25166 0.7771,-0.55783 1.7095,-0.85787 2.6661,-0.85786 z"
       fill="url(#paint0_linear_2550_7118)"
       id="path15"
       style="fill:url(#linearGradient31)" /><path
       d="M 78.5771,66.708 H 33.1149 c -0.4225,0 -0.8351,0.1271 -1.1843,0.3649 -0.3492,0.2377 -0.6188,0.575 -0.7737,0.968 -0.1549,0.393 -0.188,0.8235 -0.0949,1.2356 0.0931,0.412 0.308,0.7865 0.6169,1.0748 l 29.2128,27.2651 c 0.8503,0.7936 1.97,1.235 3.1331,1.2351 H 89.766 Z"
       fill="#0078d4"
       id="path16" /><path
       d="M 36.9171,7.56351 C 35.9502,7.55988 35.0075,7.86546 34.2265,8.43562 33.4456,9.00578 32.8674,9.81067 32.5764,10.7327 L 4.8929,92.7528 c -0.2473,0.6891 -0.32497,1.4277 -0.22642,2.1532 0.09854,0.7255 0.37038,1.4166 0.79253,2.0148 0.42216,0.5983 0.98219,1.086 1.63273,1.422 0.65053,0.3359 1.37242,0.5103 2.10459,0.5082 H 32.0832 c 0.8526,-0.1523 1.6495,-0.5282 2.3093,-1.0894 0.6597,-0.5611 1.1586,-1.2874 1.4457,-2.1045 l 5.5199,-16.2687 19.7195,18.3919 c 0.8262,0.6838 1.8628,1.0619 2.9352,1.0709 H 89.6587 L 78.4104,66.7075 45.6206,66.7148 65.6902,7.56351 Z"
       fill="url(#paint1_linear_2550_7118)"
       id="path17"
       style="fill:url(#linearGradient32)" /><path
       d="M 73.5344,10.6682 C 73.2291,9.76335 72.6475,8.97705 71.8718,8.42007 71.096,7.86308 70.165,7.56349 69.21,7.56348 H 37.2593 c 0.9551,3e-5 1.8861,0.29962 2.6619,0.85659 0.7759,0.55698 1.3575,1.34327 1.663,2.24813 l 27.7285,82.1587 c 0.2316,0.6866 0.2965,1.4186 0.1892,2.1353 -0.1073,0.7166 -0.3837,1.3975 -0.8064,1.9862 -0.4226,0.5886 -0.9793,1.0682 -1.624,1.3991 -0.6448,0.3308 -1.359,0.5034 -2.0837,0.5035 h 31.9507 c 0.7247,0 1.4389,-0.1726 2.0837,-0.5035 0.6447,-0.3308 1.2018,-0.8104 1.6238,-1.3991 0.423,-0.5887 0.699,-1.2696 0.806,-1.9863 0.108,-0.7167 0.043,-1.4486 -0.189,-2.1352 z"
       fill="url(#paint2_linear_2550_7118)"
       id="path24"
       style="fill:url(#linearGradient33)" /></g></svg>
