<?xml version="1.0" encoding="UTF-8" standalone="no"?>
<svg
   width="1920.9999"
   height="1081"
   viewBox="0 0 1920.9999 1081"
   fill="none"
   version="1.1"
   id="svg44"
   sodipodi:docname="one-logo.svg"
   xml:space="preserve"
   inkscape:export-filename="improving-github-copilot-completions-in-visual-studio.jpg"
   inkscape:export-xdpi="96"
   inkscape:export-ydpi="96"
   inkscape:version="1.4.3 (0d15f75, 2025-12-25)"
   xmlns:inkscape="http://www.inkscape.org/namespaces/inkscape"
   xmlns:sodipodi="http://sodipodi.sourceforge.net/DTD/sodipodi-0.dtd"
   xmlns="http://www.w3.org/2000/svg"
   xmlns:svg="http://www.w3.org/2000/svg"><sodipodi:namedview
     id="namedview44"
     pagecolor="#505050"
     bordercolor="#eeeeee"
     borderopacity="1"
     inkscape:showpageshadow="0"
     inkscape:pageopacity="0"
     inkscape:pagecheckerboard="0"
     inkscape:deskcolor="#d1d1d1"
     inkscape:zoom="0.22627417"
     inkscape:cx="1294.8893"
     inkscape:cy="1297.099"
     inkscape:window-width="1920"
     inkscape:window-height="1009"
     inkscape:window-x="3832"
     inkscape:window-y="-8"
     inkscape:window-maximized="1"
     inkscape:current-layer="svg44"
     showgrid="false"><inkscape:grid
       id="grid248"
       units="px"
       originx="-1865.2374"
       originy="4520.3159"
       spacingx="1"
       spacingy="1"
       empcolor="#3f3fff"
       empopacity="0.25098039"
       color="#3f3fff"
       opacity="0.12549"
       empspacing="5"
       enabled="true"
       visible="false" /><inkscape:page
       x="0"
       y="0"
       width="1920.9999"
       height="1081"
       id="page2"
       margin="0"
       bleed="0" /></sodipodi:namedview><defs
     id="defs44"><clipPath
       id="clip0_2550_13722"><rect
         width="106"
         height="106"
         fill="#ffffff"
         id="rect4-21"
         x="0"
         y="0" /></clipPath></defs><style
     type="text/css"
     id="style1">
	.st0{fill:#1B1F24;}
</style><style
     type="text/css"
     id="style2">
	.st0{fill:#3999C6;}
	.st1{fill:#FCD116;}
	.st2{opacity:0.3;fill:#FF8C00;enable-background:new    ;}
	.st3{font-family:'HelveticaNeue-Medium';}
	.st4{font-size:31.8596px;}
</style><text
     xml:space="preserve"
     style="font-size:74.6667px;line-height:1.1;font-family:'Segoe UI';-inkscape-font-specification:'Segoe UI';letter-spacing:0px;word-spacing:0px;fill:#fefefe;fill-opacity:1"
     x="68.619545"
     y="955.85083"
     id="text97"><tspan
       sodipodi:role="line"
       x="68.619545"
       y="955.85083"
       style="font-style:normal;font-variant:normal;font-weight:bold;font-stretch:normal;font-size:74.6667px;line-height:1.1;font-family:'Segoe UI';-inkscape-font-specification:'Segoe UI Bold';fill:#fefefe;fill-opacity:1"
       id="tspan96">For C# Developers</tspan></text><text
     xml:space="preserve"
     style="font-size:133.333px;line-height:1.1;font-family:'Segoe UI';-inkscape-font-specification:'Segoe UI';letter-spacing:0px;word-spacing:0px;fill:#ffffff;fill-opacity:1"
     x="72.58049"
     y="443.57748"
     id="text123"><tspan
       sodipodi:role="line"
       x="72.58049"
       y="443.57748"
       style="font-style:normal;font-variant:normal;font-weight:bold;font-stretch:normal;line-height:1.1;font-family:'Segoe UI';-inkscape-font-specification:'Segoe UI Bold'"
       id="tspan138">The Official</tspan><tspan
       sodipodi:role="line"
       x="72.58049"
       y="590.24377"
       style="font-style:normal;font-variant:normal;font-weight:bold;font-stretch:normal;line-height:1.1;font-family:'Segoe UI';-inkscape-font-specification:'Segoe UI Bold'"
       id="tspan131">OpenAI library</tspan><tspan
       sodipodi:role="line"
       x="72.58049"
       y="736.91003"
       style="font-style:normal;font-variant:normal;font-weight:bold;font-stretch:normal;line-height:1.1;font-family:'Segoe UI';-inkscape-font-specification:'Segoe UI Bold'"
       id="tspan132">for .NET</tspan></text><rect
     style="fill:#8dc8e8;fill-opacity:1;stroke-width:1.65439;stroke-linecap:square;stroke-linejoin:round;stroke-miterlimit:0"
     id="rect124"
     width="750"
     height="125.57484"
     x="74.598801"
     y="131.52817"
     ry="62.787418" /><text
     xml:space="preserve"
     style="font-size:88.4402px;line-height:1.25;font-family:'Segoe UI';-inkscape-font-specification:'Segoe UI';letter-spacing:0px;word-spacing:0px;fill:#000000;fill-opacity:1;stroke-width:0.663303"
     x="142.72551"
     y="225.27829"
     id="text119"><tspan
       sodipodi:role="line"
       x="142.72551"
       y="225.27829"
       id="tspan122"
       style="font-style:normal;font-variant:normal;font-weight:600;font-stretch:normal;font-family:'Segoe UI';-inkscape-font-specification:'Segoe UI Semi-Bold';stroke-width:0.663303">ANNOUNCING</tspan></text><path
     style="fill:#ffffff;stroke:none;stroke-width:6.39874"
     id="path1"
     sodipodi:type="arc"
     sodipodi:cx="1544.0339"
     sodipodi:cy="520.93884"
     sodipodi:rx="204.95049"
     sodipodi:ry="204.95049"
     sodipodi:start="0"
     sodipodi:end="6.28144"
     sodipodi:open="true"
     sodipodi:arc-type="arc"
     d="m 1748.9844,520.93884 a 204.95049,204.95049 0 0 1 -204.861,204.95047 204.95049,204.95049 0 0 1 -205.0399,-204.77162 204.95049,204.95049 0 0 1 204.6822,-205.12916 204.95049,204.95049 0 0 1 205.2184,204.59261" /><g
     style="fill:none"
     id="g142"
     transform="matrix(2.0140105,0,0,2.0140105,1434.5951,409.70671)"><g
       clip-path="url(#clip0_2550_13722)"
       id="g141"><rect
         width="106"
         height="106"
         rx="2"
         fill="#4122aa"
         id="rect138"
         x="0"
         y="0" /><path
         d="m 18.0605,63.3801 c 0,-0.9509 0.2545,-1.6698 0.7635,-2.1566 0.509,-0.4868 1.2498,-0.7301 2.2225,-0.7301 0.9388,0 1.6626,0.249 2.1716,0.7471 0.5203,0.4981 0.7804,1.2113 0.7804,2.1396 0,0.8943 -0.2601,1.6018 -0.7804,2.1226 -0.5203,0.5094 -1.2441,0.7641 -2.1716,0.7641 -0.9501,0 -1.6853,-0.249 -2.2055,-0.7471 -0.5203,-0.5094 -0.7805,-1.2226 -0.7805,-2.1396 z"
         fill="#ffffff"
         id="path138" /><path
         d="M 48.1563,65.8083 H 41.4718 L 30.6817,47.0276 H 30.529 c 0.2149,3.3169 0.3223,5.6829 0.3223,7.098 V 65.8083 H 26.1518 V 40.9824 h 6.6336 l 10.7732,18.594 h 0.1188 C 43.5077,56.35 43.4229,54.069 43.4229,52.7331 V 40.9824 h 4.7334 z"
         fill="#ffffff"
         id="path139" /><path
         d="M 63.9113,65.8083 H 49.6262 V 40.9824 h 14.2851 v 4.3131 h -9.0257 v 5.4509 h 8.398 v 4.3131 h -8.398 v 6.4018 h 9.0257 z"
         fill="#ffffff"
         id="path140" /><path
         d="M 77.1758,65.8083 H 71.9164 V 45.3635 H 65.181 v -4.3811 h 18.7301 v 4.3811 h -6.7353 z"
         fill="#ffffff"
         id="path141" /></g></g></svg>
