<?xml version="1.0" encoding="UTF-8" standalone="no"?>
<svg
   width="1920"
   height="1080"
   viewBox="0 0 1920 1080"
   fill="none"
   version="1.1"
   id="svg44"
   sodipodi:docname="split-image.svg"
   xml:space="preserve"
   inkscape:export-filename="improving-github-copilot-completions-in-visual-studio.jpg"
   inkscape:export-xdpi="96"
   inkscape:export-ydpi="96"
   inkscape:version="1.4.3 (0d15f75, 2025-12-25)"
   xmlns:inkscape="http://www.inkscape.org/namespaces/inkscape"
   xmlns:sodipodi="http://sodipodi.sourceforge.net/DTD/sodipodi-0.dtd"
   xmlns="http://www.w3.org/2000/svg"
   xmlns:svg="http://www.w3.org/2000/svg"><sodipodi:namedview
     id="namedview44"
     pagecolor="#505050"
     bordercolor="#eeeeee"
     borderopacity="1"
     inkscape:showpageshadow="0"
     inkscape:pageopacity="0"
     inkscape:pagecheckerboard="0"
     inkscape:deskcolor="#d1d1d1"
     inkscape:zoom="0.45254834"
     inkscape:cx="1071.7087"
     inkscape:cy="588.88737"
     inkscape:window-width="1920"
     inkscape:window-height="1009"
     inkscape:window-x="1912"
     inkscape:window-y="-5"
     inkscape:window-maximized="1"
     inkscape:current-layer="svg44"
     showgrid="false"><inkscape:grid
       id="grid248"
       units="px"
       originx="3076.0789"
       originy="6284.104"
       spacingx="1"
       spacingy="1"
       empcolor="#3f3fff"
       empopacity="0.25098039"
       color="#3f3fff"
       opacity="0.12549"
       empspacing="5"
       enabled="true"
       visible="false" /><inkscape:page
       x="0"
       y="0"
       width="1920"
       height="1080"
       id="page2"
       margin="0"
       bleed="0" /></sodipodi:namedview><defs
     id="defs44" /><style
     type="text/css"
     id="style1">
	.st0{fill:#1B1F24;}
</style><path
     d="M 1345,3.9062497e-6 1090,1080 h 830 V 3.9062497e-6 Z"
     fill="url(#pattern1_5322_3423)"
     id="path2-0"
     style="fill:#00ff00;fill-opacity:1"
     clip-path="none" /><path
     d="M 144.99996,363.5001 H 86.210857 v -98.027 h 56.533103 v 17.978 h -34.453 v 21.807 h 32.061 v 17.91 h -32.061 v 22.422 h 36.709 z m 74.211,-70 -23.106,33.906 22.969,36.094 h -24.883 l -10.117,-18.867 c -0.82,-1.504 -1.8,-3.623 -2.939,-6.358 h -0.274 c -0.683,1.914 -1.618,3.965 -2.802,6.153 l -10.186,19.072 h -24.814 l 23.652,-34.863 -22.217,-35.137 h 25.02 l 9.98,19.619 c 1.322,2.598 2.256,4.785 2.803,6.563 h 0.273 c 0.729,-2.142 1.709,-4.375 2.94,-6.7 l 10.185,-19.482 z m 24.65,61.865 h -0.273 v 40.332 h -21.602 v -102.197 h 21.602 v 10.527 h 0.273 c 5.332,-8.157 12.829,-12.236 22.491,-12.236 9.069,0 16.064,3.122 20.986,9.365 4.967,6.198 7.451,14.652 7.451,25.362 0,11.666 -2.894,21.031 -8.682,28.095 -5.742,7.064 -13.398,10.596 -22.968,10.596 -8.431,0 -14.857,-3.281 -19.278,-9.844 z m -0.615,-28.711 v 5.606 c 0,4.83 1.276,8.773 3.828,11.826 2.552,3.053 5.902,4.58 10.049,4.58 4.922,0 8.727,-1.891 11.416,-5.674 2.734,-3.828 4.102,-9.228 4.102,-16.201 0,-12.305 -4.786,-18.457 -14.356,-18.457 -4.42,0 -8.043,1.686 -10.869,5.059 -2.78,3.326 -4.17,7.747 -4.17,13.261 z m 80.158,36.846 h -21.601 v -103.633 h 21.601 z m 44.543,1.709 c -11.666,0 -20.849,-3.258 -27.549,-9.775 -6.653,-6.563 -9.98,-15.45 -9.98,-26.661 0,-11.575 3.464,-20.621 10.391,-27.138 6.927,-6.563 16.292,-9.844 28.095,-9.844 11.621,0 20.736,3.281 27.344,9.844 6.608,6.517 9.912,15.153 9.912,25.908 0,11.621 -3.418,20.804 -10.254,27.549 -6.79,6.745 -16.11,10.117 -27.959,10.117 z m 0.547,-56.875 c -5.104,0 -9.069,1.755 -11.894,5.264 -2.826,3.509 -4.239,8.476 -4.239,14.902 0,13.444 5.424,20.166 16.27,20.166 10.345,0 15.517,-6.904 15.517,-20.713 0,-13.079 -5.218,-19.619 -15.654,-19.619 z m 90.344,4.648 c -2.598,-1.412 -5.628,-2.119 -9.092,-2.119 -4.694,0 -8.363,1.732 -11.006,5.196 -2.643,3.418 -3.965,8.089 -3.965,14.013 v 33.428 h -21.601 v -70 h 21.601 v 12.988 h 0.274 c 3.418,-9.479 9.57,-14.218 18.457,-14.218 2.279,0 4.056,0.273 5.332,0.82 z m 14.601,-30.556 c -3.645,0 -6.63,-1.071 -8.955,-3.213 -2.324,-2.188 -3.486,-4.854 -3.486,-7.998 0,-3.236 1.162,-5.879 3.486,-7.93 2.325,-2.051 5.31,-3.076 8.955,-3.076 3.692,0 6.677,1.025 8.956,3.076 2.324,2.051 3.486,4.694 3.486,7.93 0,3.281 -1.162,5.97 -3.486,8.066 -2.279,2.097 -5.264,3.145 -8.956,3.145 z m 10.665,81.074 h -21.602 v -70 h 21.602 z m 78.791,0 h -21.534 v -38.896 c 0,-10.847 -3.873,-16.27 -11.621,-16.27 -3.737,0 -6.813,1.436 -9.228,4.307 -2.416,2.871 -3.623,6.517 -3.623,10.937 v 39.922 h -21.602 v -70 h 21.602 v 11.074 h 0.273 c 5.15,-8.522 12.647,-12.783 22.49,-12.783 15.495,0 23.243,9.616 23.243,28.848 z m 78.791,-7.998 c 0,12.988 -3.76,23.037 -11.28,30.146 -7.519,7.155 -18.411,10.733 -32.676,10.733 -9.433,0 -16.907,-1.345 -22.421,-4.033 v -18.184 c 7.2,4.193 14.469,6.289 21.806,6.289 7.292,0 12.943,-1.937 16.953,-5.81 4.011,-3.829 6.016,-9.047 6.016,-15.655 v -5.537 h -0.273 c -4.922,7.839 -12.191,11.758 -21.807,11.758 -8.932,0 -16.019,-3.145 -21.26,-9.434 -5.241,-6.289 -7.861,-14.72 -7.861,-25.293 0,-11.849 2.916,-21.259 8.75,-28.232 5.833,-6.973 13.512,-10.459 23.037,-10.459 8.522,0 14.902,3.281 19.141,9.844 h 0.273 v -8.135 h 21.602 z m -21.329,-25.635 v -5.537 c 0,-4.42 -1.321,-8.18 -3.964,-11.279 -2.598,-3.145 -5.993,-4.717 -10.186,-4.717 -4.785,0 -8.545,1.868 -11.279,5.605 -2.735,3.737 -4.102,9.001 -4.102,15.791 0,5.834 1.299,10.459 3.897,13.877 2.597,3.373 6.152,5.059 10.664,5.059 4.466,0 8.066,-1.709 10.801,-5.127 2.779,-3.463 4.169,-8.021 4.169,-13.672 z m 131.674,33.633 h -21.533 v -38.896 c 0,-10.847 -3.874,-16.27 -11.621,-16.27 -3.737,0 -6.813,1.436 -9.229,4.307 -2.415,2.871 -3.623,6.517 -3.623,10.937 v 39.922 h -21.601 v -70 h 21.601 v 11.074 h 0.274 c 5.15,-8.522 12.646,-12.783 22.49,-12.783 15.495,0 23.242,9.616 23.242,28.848 z m 73.049,-28.848 h -45.664 c 0.729,10.163 7.132,15.244 19.209,15.244 7.702,0 14.469,-1.822 20.303,-5.468 v 15.586 c -6.472,3.463 -14.88,5.195 -25.225,5.195 -11.302,0 -20.075,-3.122 -26.318,-9.365 -6.244,-6.289 -9.365,-15.039 -9.365,-26.25 0,-11.621 3.372,-20.827 10.117,-27.617 6.745,-6.791 15.039,-10.186 24.883,-10.186 10.208,0 18.092,3.031 23.652,9.092 5.605,6.061 8.408,14.287 8.408,24.678 z m -20.029,-13.261 c 0,-10.026 -4.056,-15.039 -12.168,-15.039 -3.464,0 -6.472,1.435 -9.024,4.306 -2.506,2.871 -4.033,6.449 -4.58,10.733 z m 127.258,-27.891 -20.166,70 h -22.696 l -10.322,-41.016 c -0.684,-2.734 -1.071,-5.719 -1.162,-8.955 h -0.41 c -0.319,3.555 -0.775,6.449 -1.367,8.682 l -11.075,41.289 h -22.422 l -19.755,-70 h 22.011 l 9.639,45.664 c 0.456,2.142 0.798,4.74 1.025,7.793 h 0.411 c 0.227,-3.19 0.638,-5.879 1.23,-8.066 l 12.031,-45.391 h 20.576 l 10.801,45.664 c 0.274,1.139 0.593,3.783 0.957,7.93 h 0.479 c 0.228,-2.643 0.592,-5.287 1.094,-7.93 l 9.091,-45.664 z M 93.730457,505.2091 c -3.5547,0 -6.517,-1.094 -8.8867,-3.281 -2.3698,-2.188 -3.5547,-4.877 -3.5547,-8.067 0,-3.281 1.2076,-5.97 3.623,-8.066 2.4609,-2.096 5.5143,-3.145 9.1602,-3.145 3.6914,0 6.698703,1.071 9.023703,3.213 2.369,2.097 3.554,4.763 3.554,7.998 0,3.327 -1.207,6.062 -3.623,8.203 -2.369,2.097 -5.468403,3.145 -9.296503,3.145 z m 111.671503,-1.709 h -22.285 l -40.4,-61.592 c -2.37,-3.6 -4.011,-6.312 -4.922,-8.135 h -0.274 c 0.365,3.464 0.547,8.75 0.547,15.86 v 53.867 h -20.849 v -98.027 h 23.789 l 38.896,59.677 c 1.778,2.689 3.418,5.355 4.922,7.998 h 0.274 c -0.365,-2.278 -0.547,-6.767 -0.547,-13.466 v -54.209 h 20.849 z m 74.211,0 h -58.789 v -98.027 h 56.533 v 17.978 h -34.453 v 21.807 h 32.061 v 17.91 h -32.061 v 22.422 h 36.709 z m 78.791,-80.049 h -27.959 v 80.049 h -22.148 v -80.049 h -27.822 v -17.978 h 77.929 z m 81.43,29.531 c -2.598,-1.412 -5.628,-2.119 -9.092,-2.119 -4.694,0 -8.362,1.732 -11.006,5.196 -2.643,3.418 -3.965,8.089 -3.965,14.013 v 33.428 h -21.601 v -70 h 21.601 v 12.988 h 0.274 c 3.418,-9.479 9.57,-14.218 18.457,-14.218 2.279,0 4.056,0.273 5.332,0.82 z m 65.461,21.67 h -45.664 c 0.729,10.163 7.132,15.244 19.209,15.244 7.702,0 14.469,-1.822 20.303,-5.468 v 15.586 c -6.472,3.463 -14.88,5.195 -25.225,5.195 -11.302,0 -20.075,-3.122 -26.318,-9.365 -6.244,-6.289 -9.366,-15.039 -9.366,-26.25 0,-11.621 3.373,-20.827 10.118,-27.617 6.744,-6.791 15.039,-10.186 24.882,-10.186 10.209,0 18.093,3.031 23.653,9.092 5.605,6.061 8.408,14.287 8.408,24.678 z m -20.029,-13.261 c 0,-10.026 -4.056,-15.039 -12.168,-15.039 -3.464,0 -6.472,1.435 -9.024,4.306 -2.506,2.871 -4.033,6.449 -4.58,10.733 z m 47.482,42.109 h -21.602 v -103.633 h 21.602 z m 74.074,-28.848 h -45.664 c 0.729,10.163 7.132,15.244 19.209,15.244 7.702,0 14.47,-1.822 20.303,-5.468 v 15.586 c -6.471,3.463 -14.88,5.195 -25.225,5.195 -11.302,0 -20.075,-3.122 -26.318,-9.365 -6.244,-6.289 -9.365,-15.039 -9.365,-26.25 0,-11.621 3.372,-20.827 10.117,-27.617 6.745,-6.791 15.039,-10.186 24.883,-10.186 10.208,0 18.092,3.031 23.652,9.092 5.606,6.061 8.408,14.287 8.408,24.678 z m -20.029,-13.261 c 0,-10.026 -4.056,-15.039 -12.168,-15.039 -3.464,0 -6.471,1.435 -9.023,4.306 -2.507,2.871 -4.034,6.449 -4.581,10.733 z m 84.123,42.109 h -20.439 v -10.049 h -0.274 c -4.694,7.839 -11.644,11.758 -20.849,11.758 -6.791,0 -12.146,-1.914 -16.065,-5.742 -3.874,-3.874 -5.81,-9.024 -5.81,-15.449 0,-13.581 8.043,-21.42 24.13,-23.516 l 19.004,-2.529 c 0,-7.657 -4.147,-11.485 -12.441,-11.485 -8.34,0 -16.27,2.484 -23.789,7.451 v -16.269 c 3.008,-1.55 7.109,-2.917 12.305,-4.102 5.24,-1.185 10.003,-1.777 14.287,-1.777 19.961,0 29.941,9.958 29.941,29.873 z m -20.303,-28.438 v -4.716 l -12.715,1.64 c -7.018,0.912 -10.527,4.079 -10.527,9.502 0,2.461 0.843,4.489 2.529,6.084 1.732,1.55 4.056,2.324 6.973,2.324 4.056,0 7.36,-1.389 9.912,-4.169 2.552,-2.826 3.828,-6.381 3.828,-10.665 z m 25.813,26.592 v -17.5 c 3.554,2.142 7.086,3.737 10.595,4.785 3.555,1.049 6.905,1.573 10.049,1.573 3.828,0 6.836,-0.524 9.024,-1.573 2.233,-1.048 3.349,-2.643 3.349,-4.785 0,-1.367 -0.501,-2.506 -1.504,-3.418 -1.002,-0.911 -2.301,-1.709 -3.896,-2.392 -1.55,-0.684 -3.258,-1.299 -5.127,-1.846 -1.868,-0.547 -3.669,-1.162 -5.4,-1.846 -2.78,-1.048 -5.241,-2.164 -7.383,-3.349 -2.097,-1.231 -3.874,-2.643 -5.332,-4.239 -1.413,-1.595 -2.507,-3.44 -3.281,-5.537 -0.73,-2.096 -1.094,-4.58 -1.094,-7.451 0,-3.919 0.843,-7.291 2.529,-10.117 1.732,-2.826 4.01,-5.127 6.836,-6.904 2.871,-1.823 6.13,-3.145 9.775,-3.965 3.692,-0.866 7.52,-1.299 11.485,-1.299 3.099,0 6.243,0.251 9.433,0.752 3.19,0.456 6.335,1.139 9.434,2.051 v 16.679 c -2.734,-1.595 -5.674,-2.78 -8.818,-3.554 -3.099,-0.821 -6.153,-1.231 -9.161,-1.231 -1.412,0 -2.757,0.137 -4.033,0.41 -1.23,0.228 -2.324,0.593 -3.281,1.094 -0.957,0.456 -1.709,1.071 -2.256,1.846 -0.547,0.729 -0.82,1.572 -0.82,2.529 0,1.276 0.41,2.37 1.23,3.281 0.821,0.912 1.892,1.709 3.213,2.393 1.322,0.638 2.78,1.23 4.375,1.777 1.641,0.502 3.259,1.026 4.854,1.573 2.871,1.002 5.468,2.096 7.793,3.281 2.324,1.185 4.306,2.575 5.947,4.17 1.686,1.595 2.962,3.463 3.828,5.605 0.912,2.142 1.367,4.694 1.367,7.657 0,4.147 -0.911,7.701 -2.734,10.664 -1.777,2.916 -4.17,5.309 -7.178,7.177 -2.962,1.823 -6.403,3.145 -10.322,3.965 -3.874,0.866 -7.907,1.299 -12.1,1.299 -7.702,0 -14.834,-1.185 -21.396,-3.555 z m 122.131,-27.002 h -45.664 c 0.729,10.163 7.132,15.244 19.209,15.244 7.701,0 14.469,-1.822 20.302,-5.468 v 15.586 c -6.471,3.463 -14.879,5.195 -25.224,5.195 -11.302,0 -20.075,-3.122 -26.319,-9.365 -6.243,-6.289 -9.365,-15.039 -9.365,-26.25 0,-11.621 3.372,-20.827 10.117,-27.617 6.745,-6.791 15.039,-10.186 24.883,-10.186 10.208,0 18.093,3.031 23.652,9.092 5.606,6.061 8.409,14.287 8.409,24.678 z m -20.03,-13.261 c 0,-10.026 -4.056,-15.039 -12.168,-15.039 -3.463,0 -6.471,1.435 -9.023,4.306 -2.507,2.871 -4.033,6.449 -4.58,10.733 z m 21.301,40.263 v -17.5 c 3.555,2.142 7.087,3.737 10.596,4.785 3.555,1.049 6.904,1.573 10.049,1.573 3.828,0 6.836,-0.524 9.023,-1.573 2.233,-1.048 3.35,-2.643 3.35,-4.785 0,-1.367 -0.502,-2.506 -1.504,-3.418 -1.003,-0.911 -2.302,-1.709 -3.897,-2.392 -1.549,-0.684 -3.258,-1.299 -5.127,-1.846 -1.868,-0.547 -3.668,-1.162 -5.4,-1.846 -2.78,-1.048 -5.241,-2.164 -7.383,-3.349 -2.096,-1.231 -3.874,-2.643 -5.332,-4.239 -1.413,-1.595 -2.506,-3.44 -3.281,-5.537 -0.729,-2.096 -1.094,-4.58 -1.094,-7.451 0,-3.919 0.843,-7.291 2.529,-10.117 1.732,-2.826 4.011,-5.127 6.836,-6.904 2.871,-1.823 6.13,-3.145 9.776,-3.965 3.691,-0.866 7.519,-1.299 11.484,-1.299 3.099,0 6.244,0.251 9.434,0.752 3.19,0.456 6.334,1.139 9.433,2.051 v 16.679 c -2.734,-1.595 -5.674,-2.78 -8.818,-3.554 -3.099,-0.821 -6.152,-1.231 -9.16,-1.231 -1.413,0 -2.757,0.137 -4.033,0.41 -1.231,0.228 -2.325,0.593 -3.282,1.094 -0.957,0.456 -1.709,1.071 -2.256,1.846 -0.546,0.729 -0.82,1.572 -0.82,2.529 0,1.276 0.41,2.37 1.231,3.281 0.82,0.912 1.891,1.709 3.213,2.393 1.321,0.638 2.779,1.23 4.375,1.777 1.64,0.502 3.258,1.026 4.853,1.573 2.871,1.002 5.469,2.096 7.793,3.281 2.324,1.185 4.307,2.575 5.947,4.17 1.686,1.595 2.963,3.463 3.828,5.605 0.912,2.142 1.368,4.694 1.368,7.657 0,4.147 -0.912,7.701 -2.735,10.664 -1.777,2.916 -4.17,5.309 -7.178,7.177 -2.962,1.823 -6.403,3.145 -10.322,3.965 -3.873,0.866 -7.907,1.299 -12.099,1.299 -7.702,0 -14.834,-1.185 -21.397,-3.555 z m 192.309,-68.154 -20.166,70 h -22.696 l -10.322,-41.016 c -0.683,-2.734 -1.071,-5.719 -1.162,-8.955 h -0.41 c -0.319,3.555 -0.775,6.449 -1.367,8.682 l -11.075,41.289 h -22.421 l -19.756,-70 h 22.011 l 9.639,45.664 c 0.456,2.142 0.798,4.74 1.026,7.793 h 0.41 c 0.228,-3.19 0.638,-5.879 1.23,-8.066 l 12.031,-45.391 h 20.577 l 10.8,45.664 c 0.274,1.139 0.593,3.783 0.957,7.93 h 0.479 c 0.228,-2.643 0.592,-5.287 1.094,-7.93 l 9.091,-45.664 z M 1006.4,422.4261 c -3.65,0 -6.63404,-1.071 -8.95904,-3.213 -2.324,-2.188 -3.486,-4.854 -3.486,-7.998 0,-3.236 1.162,-5.879 3.486,-7.93 2.325,-2.051 5.30904,-3.076 8.95904,-3.076 3.69,0 6.67,1.025 8.95,3.076 2.33,2.051 3.49,4.694 3.49,7.93 0,3.281 -1.16,5.97 -3.49,8.066 -2.28,2.097 -5.26,3.145 -8.95,3.145 z m 10.66,81.074 h -21.60104 v -70 H 1017.06 Z m 53.5,-0.82 c -3.19,1.686 -8,2.529 -14.43,2.529 -15.22,0 -22.83,-7.907 -22.83,-23.721 v -32.06 h -11.34 v -15.928 h 11.34 v -15.107 l 21.54,-6.153 v 21.26 h 15.72 v 15.928 h -15.72 v 28.301 c 0,7.291 2.89,10.937 8.68,10.937 2.28,0 4.62,-0.661 7.04,-1.982 z m 72.43,0.82 h -21.53 v -39.785 c 0,-10.254 -3.74,-15.381 -11.21,-15.381 -3.83,0 -6.93,1.436 -9.3,4.307 -2.37,2.871 -3.55,6.517 -3.55,10.937 v 39.922 h -21.61 v -103.633 h 21.61 v 44.024 h 0.27 c 5.29,-8.067 12.46,-12.1 21.53,-12.1 15.86,0 23.79,9.57 23.79,28.711 z m -1056.779143,140 v -98.027 h 34.727103 c 34.817,0 52.226,15.927 52.226,47.783 0,15.267 -4.762,27.458 -14.287,36.572 -9.479,9.115 -22.126,13.672 -37.939,13.672 z m 22.080103,-80.049 v 62.139 h 10.938 c 9.57,0 17.067,-2.871 22.49,-8.613 5.469,-5.743 8.203,-13.558 8.203,-23.448 0,-9.342 -2.712,-16.679 -8.135,-22.011 -5.377,-5.378 -12.943,-8.067 -22.695,-8.067 z m 134.914,51.201 h -45.664 c 0.729,10.163 7.132,15.244 19.209,15.244 7.702,0 14.469,-1.822 20.303,-5.468 v 15.586 c -6.472,3.463 -14.88,5.195 -25.225,5.195 -11.302,0 -20.075,-3.122 -26.318,-9.365 -6.244,-6.289 -9.365,-15.039 -9.365,-26.25 0,-11.621 3.372,-20.827 10.117,-27.617 6.745,-6.791 15.039,-10.186 24.883,-10.186 10.208,0 18.092,3.031 23.652,9.092 5.605,6.061 8.408,14.287 8.408,24.678 z m -20.029,-13.261 c 0,-10.026 -4.056,-15.039 -12.168,-15.039 -3.464,0 -6.472,1.435 -9.024,4.306 -2.506,2.871 -4.033,6.449 -4.58,10.733 z m 92.531,-27.891 -26.045,70 h -24.609 l -24.815,-70 h 23.106 l 12.168,43.135 c 1.367,4.876 2.164,9.023 2.392,12.441 h 0.274 c 0.319,-3.236 1.162,-7.246 2.529,-12.031 l 12.441,-43.545 z m 106.313,66.514 c -7.155,3.463 -16.498,5.195 -28.028,5.195 -15.039,0 -26.865,-4.421 -35.478,-13.262 -8.614,-8.841 -12.92,-20.621 -12.92,-35.342 0,-15.677 4.83,-28.391 14.492,-38.144 9.707,-9.753 22.285,-14.629 37.734,-14.629 9.571,0 17.637,1.208 24.2,3.623 v 21.26 c -6.563,-3.919 -14.037,-5.879 -22.422,-5.879 -9.206,0 -16.634,2.894 -22.286,8.682 -5.651,5.787 -8.476,13.626 -8.476,23.515 0,9.479 2.666,17.044 7.998,22.696 5.332,5.605 12.51,8.408 21.533,8.408 8.613,0 16.498,-2.097 23.653,-6.289 z m 41.33,5.195 c -11.667,0 -20.85,-3.258 -27.549,-9.775 -6.654,-6.563 -9.981,-15.45 -9.981,-26.661 0,-11.575 3.464,-20.621 10.391,-27.138 6.927,-6.563 16.292,-9.844 28.096,-9.844 11.621,0 20.735,3.281 27.343,9.844 6.608,6.517 9.912,15.153 9.912,25.908 0,11.621 -3.417,20.804 -10.253,27.549 -6.791,6.745 -16.11,10.117 -27.959,10.117 z m 0.546,-56.875 c -5.104,0 -9.069,1.755 -11.894,5.264 -2.826,3.509 -4.238,8.476 -4.238,14.902 0,13.444 5.423,20.166 16.269,20.166 10.345,0 15.518,-6.904 15.518,-20.713 0,-13.079 -5.218,-19.619 -15.655,-19.619 z m 112.288,55.166 h -21.534 v -38.896 c 0,-10.847 -3.873,-16.27 -11.621,-16.27 -3.737,0 -6.813,1.436 -9.228,4.307 -2.416,2.871 -3.623,6.517 -3.623,10.937 v 39.922 h -21.602 v -70 h 21.602 v 11.074 h 0.273 c 5.15,-8.522 12.647,-12.783 22.49,-12.783 15.495,0 23.243,9.616 23.243,28.848 z m 52.472,-0.82 c -3.19,1.686 -7.998,2.529 -14.424,2.529 -15.221,0 -22.832,-7.907 -22.832,-23.721 v -32.06 h -11.347 v -15.928 h 11.347 v -15.107 l 21.534,-6.153 v 21.26 h 15.722 v 15.928 h -15.722 v 28.301 c 0,7.291 2.893,10.937 8.681,10.937 2.279,0 4.626,-0.661 7.041,-1.982 z m 63.479,0.82 h -20.44 v -10.049 h -0.273 c -4.694,7.839 -11.644,11.758 -20.85,11.758 -6.79,0 -12.145,-1.914 -16.064,-5.742 -3.874,-3.874 -5.811,-9.024 -5.811,-15.449 0,-13.581 8.044,-21.42 24.131,-23.516 l 19.004,-2.529 c 0,-7.657 -4.147,-11.485 -12.441,-11.485 -8.34,0 -16.27,2.484 -23.789,7.451 v -16.269 c 3.007,-1.55 7.109,-2.917 12.304,-4.102 5.241,-1.185 10.004,-1.777 14.287,-1.777 19.961,0 29.942,9.958 29.942,29.873 z m -20.303,-28.438 v -4.716 l -12.715,1.64 c -7.018,0.912 -10.527,4.079 -10.527,9.502 0,2.461 0.843,4.489 2.529,6.084 1.732,1.55 4.056,2.324 6.973,2.324 4.056,0 7.36,-1.389 9.912,-4.169 2.552,-2.826 3.828,-6.381 3.828,-10.665 z m 41.33,-52.636 c -3.646,0 -6.631,-1.071 -8.955,-3.213 -2.324,-2.188 -3.486,-4.854 -3.486,-7.998 0,-3.236 1.162,-5.879 3.486,-7.93 2.324,-2.051 5.309,-3.076 8.955,-3.076 3.692,0 6.677,1.025 8.955,3.076 2.324,2.051 3.487,4.694 3.487,7.93 0,3.281 -1.163,5.97 -3.487,8.066 -2.278,2.097 -5.263,3.145 -8.955,3.145 z m 10.664,81.074 h -21.601 v -70 h 21.601 z m 78.791,0 h -21.533 v -38.896 c 0,-10.847 -3.874,-16.27 -11.621,-16.27 -3.737,0 -6.813,1.436 -9.229,4.307 -2.415,2.871 -3.623,6.517 -3.623,10.937 v 39.922 h -21.601 v -70 h 21.601 v 11.074 h 0.274 c 5.15,-8.522 12.646,-12.783 22.49,-12.783 15.495,0 23.242,9.616 23.242,28.848 z m 73.049,-28.848 h -45.664 c 0.729,10.163 7.132,15.244 19.209,15.244 7.702,0 14.469,-1.822 20.303,-5.468 v 15.586 c -6.472,3.463 -14.88,5.195 -25.225,5.195 -11.302,0 -20.075,-3.122 -26.318,-9.365 -6.244,-6.289 -9.366,-15.039 -9.366,-26.25 0,-11.621 3.373,-20.827 10.118,-27.617 6.744,-6.791 15.039,-10.186 24.882,-10.186 10.209,0 18.093,3.031 23.653,9.092 5.605,6.061 8.408,14.287 8.408,24.678 z m -20.029,-13.261 c 0,-10.026 -4.056,-15.039 -12.168,-15.039 -3.464,0 -6.472,1.435 -9.024,4.306 -2.506,2.871 -4.033,6.449 -4.58,10.733 z m 71.545,-8.409 c -2.598,-1.412 -5.629,-2.119 -9.092,-2.119 -4.694,0 -8.363,1.732 -11.006,5.196 -2.643,3.418 -3.965,8.089 -3.965,14.013 v 33.428 h -21.601 v -70 h 21.601 v 12.988 h 0.274 c 3.418,-9.479 9.57,-14.218 18.457,-14.218 2.278,0 4.056,0.273 5.332,0.82 z m -0.643,48.672 v -17.5 c 3.555,2.142 7.087,3.737 10.596,4.785 3.554,1.049 6.904,1.573 10.049,1.573 3.828,0 6.836,-0.524 9.023,-1.573 2.233,-1.048 3.35,-2.643 3.35,-4.785 0,-1.367 -0.502,-2.506 -1.504,-3.418 -1.003,-0.911 -2.302,-1.709 -3.897,-2.392 -1.549,-0.684 -3.258,-1.299 -5.127,-1.846 -1.868,-0.547 -3.668,-1.162 -5.4,-1.846 -2.78,-1.048 -5.241,-2.164 -7.383,-3.349 -2.096,-1.231 -3.874,-2.643 -5.332,-4.239 -1.413,-1.595 -2.506,-3.44 -3.281,-5.537 -0.729,-2.096 -1.094,-4.58 -1.094,-7.451 0,-3.919 0.843,-7.291 2.529,-10.117 1.732,-2.826 4.011,-5.127 6.836,-6.904 2.871,-1.823 6.13,-3.145 9.776,-3.965 3.691,-0.866 7.519,-1.299 11.484,-1.299 3.099,0 6.244,0.251 9.434,0.752 3.19,0.456 6.334,1.139 9.433,2.051 v 16.679 c -2.734,-1.595 -5.674,-2.78 -8.818,-3.554 -3.099,-0.821 -6.152,-1.231 -9.16,-1.231 -1.413,0 -2.757,0.137 -4.033,0.41 -1.231,0.228 -2.325,0.593 -3.282,1.094 -0.957,0.456 -1.709,1.071 -2.256,1.846 -0.546,0.729 -0.82,1.572 -0.82,2.529 0,1.276 0.41,2.37 1.231,3.281 0.82,0.912 1.891,1.709 3.212,2.393 1.322,0.638 2.78,1.23 4.375,1.777 1.641,0.502 3.259,1.026 4.854,1.573 2.871,1.002 5.469,2.096 7.793,3.281 2.324,1.185 4.307,2.575 5.947,4.17 1.686,1.595 2.962,3.463 3.828,5.605 0.912,2.142 1.368,4.694 1.368,7.657 0,4.147 -0.912,7.701 -2.735,10.664 -1.777,2.916 -4.17,5.309 -7.178,7.177 -2.962,1.823 -6.403,3.145 -10.322,3.965 -3.874,0.866 -7.907,1.299 -12.099,1.299 -7.702,0 -14.834,-1.185 -21.397,-3.555 z"
     fill="#0f0f0f"
     id="path3-9" /><style
     type="text/css"
     id="style2">
	.st0{fill:#3999C6;}
	.st1{fill:#FCD116;}
	.st2{opacity:0.3;fill:#FF8C00;enable-background:new    ;}
	.st3{font-family:'HelveticaNeue-Medium';}
	.st4{font-size:31.8596px;}
</style></svg>
