<?xml version="1.0" encoding="UTF-8" standalone="no"?>
<svg
   width="1919.9999"
   height="1080"
   viewBox="0 0 1919.9999 1080"
   fill="none"
   version="1.1"
   id="svg44"
   sodipodi:docname="two-logos.svg"
   xml:space="preserve"
   inkscape:export-filename="improving-github-copilot-completions-in-visual-studio.jpg"
   inkscape:export-xdpi="96"
   inkscape:export-ydpi="96"
   inkscape:version="1.4.3 (0d15f75, 2025-12-25)"
   xmlns:inkscape="http://www.inkscape.org/namespaces/inkscape"
   xmlns:sodipodi="http://sodipodi.sourceforge.net/DTD/sodipodi-0.dtd"
   xmlns="http://www.w3.org/2000/svg"
   xmlns:svg="http://www.w3.org/2000/svg"><sodipodi:namedview
     id="namedview44"
     pagecolor="#505050"
     bordercolor="#eeeeee"
     borderopacity="1"
     inkscape:showpageshadow="0"
     inkscape:pageopacity="0"
     inkscape:pagecheckerboard="0"
     inkscape:deskcolor="#d1d1d1"
     inkscape:zoom="0.52395832"
     inkscape:cx="522.94236"
     inkscape:cy="523.89664"
     inkscape:window-width="1920"
     inkscape:window-height="1009"
     inkscape:window-x="1912"
     inkscape:window-y="-5"
     inkscape:window-maximized="1"
     inkscape:current-layer="svg44"
     showgrid="false"><inkscape:grid
       id="grid248"
       units="px"
       originx="2474.7429"
       originy="1764.1732"
       spacingx="1"
       spacingy="1"
       empcolor="#3f3fff"
       empopacity="0.25098039"
       color="#3f3fff"
       opacity="0.12549"
       empspacing="5"
       enabled="true"
       visible="false" /><inkscape:page
       x="0"
       y="0"
       width="1919.9999"
       height="1080"
       id="page2"
       margin="0"
       bleed="0" /></sodipodi:namedview><defs
     id="defs44"><filter
       id="filter0_d_5309_789"
       x="1291.28"
       y="202.28"
       width="340.79999"
       height="340.79999"
       filterUnits="userSpaceOnUse"
       color-interpolation-filters="sRGB"><feFlood
         flood-opacity="0"
         result="BackgroundImageFix"
         id="feFlood21" /><feColorMatrix
         in="SourceAlpha"
         type="matrix"
         values="0 0 0 0 0 0 0 0 0 0 0 0 0 0 0 0 0 0 127 0"
         result="hardAlpha"
         id="feColorMatrix21" /><feOffset
         dx="5.68"
         dy="5.68"
         id="feOffset21" /><feGaussianBlur
         stdDeviation="14.2"
         id="feGaussianBlur21" /><feComposite
         in2="hardAlpha"
         operator="out"
         id="feComposite21" /><feColorMatrix
         type="matrix"
         values="0 0 0 0 0 0 0 0 0 0 0 0 0 0 0 0 0 0 0.08 0"
         id="feColorMatrix22" /><feBlend
         mode="normal"
         in2="BackgroundImageFix"
         result="effect1_dropShadow_5309_789"
         id="feBlend22" /><feBlend
         mode="normal"
         in="SourceGraphic"
         in2="effect1_dropShadow_5309_789"
         result="shape"
         id="feBlend23" /></filter><clipPath
       id="clip0_2550_13722"><rect
         width="106"
         height="106"
         fill="#ffffff"
         id="rect4-21"
         x="0"
         y="0" /></clipPath><filter
       id="filter0_dd_2550_7120-3"
       x="-0.14566299"
       y="-1.43383"
       width="106.092"
       height="94.365501"
       filterUnits="userSpaceOnUse"
       color-interpolation-filters="sRGB"><feFlood
         flood-opacity="0"
         result="BackgroundImageFix"
         id="feFlood9-4" /><feColorMatrix
         in="SourceAlpha"
         type="matrix"
         values="0 0 0 0 0 0 0 0 0 0 0 0 0 0 0 0 0 0 127 0"
         result="hardAlpha"
         id="feColorMatrix9-7-6" /><feOffset
         dy="0.0908094"
         id="feOffset9-7" /><feGaussianBlur
         stdDeviation="0.0908094"
         id="feGaussianBlur9-2" /><feColorMatrix
         type="matrix"
         values="0 0 0 0 0 0 0 0 0 0 0 0 0 0 0 0 0 0 0.24 0"
         id="feColorMatrix10-2-6" /><feBlend
         mode="normal"
         in2="BackgroundImageFix"
         result="effect1_dropShadow_2550_7120"
         id="feBlend10-5-9" /><feColorMatrix
         in="SourceAlpha"
         type="matrix"
         values="0 0 0 0 0 0 0 0 0 0 0 0 0 0 0 0 0 0 127 0"
         result="hardAlpha"
         id="feColorMatrix11-4-6" /><feOffset
         dy="0.477944"
         id="feOffset11-6" /><feGaussianBlur
         stdDeviation="0.955888"
         id="feGaussianBlur11-4" /><feColorMatrix
         type="matrix"
         values="0 0 0 0 0 0 0 0 0 0 0 0 0 0 0 0 0 0 0.22 0"
         id="feColorMatrix12-0" /><feBlend
         mode="normal"
         in2="effect1_dropShadow_2550_7120"
         result="effect2_dropShadow_2550_7120"
         id="feBlend12-1-3" /><feBlend
         mode="normal"
         in="SourceGraphic"
         in2="effect2_dropShadow_2550_7120"
         result="shape"
         id="feBlend13-4" /></filter><linearGradient
       id="paint0_linear_2550_7120-0"
       x1="86.124397"
       y1="5.3920298e-06"
       x2="7.4152598"
       y2="79.220596"
       gradientUnits="userSpaceOnUse"><stop
         stop-color="#7252AA"
         id="stop21-9-3" /><stop
         offset="1"
         stop-color="#7252AA"
         id="stop22-1" /></linearGradient><filter
       id="filter1_dd_2550_7120-2"
       x="-0.14566299"
       y="14.0242"
       width="106.092"
       height="94.365501"
       filterUnits="userSpaceOnUse"
       color-interpolation-filters="sRGB"><feFlood
         flood-opacity="0"
         result="BackgroundImageFix"
         id="feFlood13-2" /><feColorMatrix
         in="SourceAlpha"
         type="matrix"
         values="0 0 0 0 0 0 0 0 0 0 0 0 0 0 0 0 0 0 127 0"
         result="hardAlpha"
         id="feColorMatrix13-3" /><feOffset
         dy="0.0908094"
         id="feOffset13-4" /><feGaussianBlur
         stdDeviation="0.0908094"
         id="feGaussianBlur13-1" /><feColorMatrix
         type="matrix"
         values="0 0 0 0 0 0 0 0 0 0 0 0 0 0 0 0 0 0 0.24 0"
         id="feColorMatrix14-1" /><feBlend
         mode="normal"
         in2="BackgroundImageFix"
         result="effect1_dropShadow_2550_7120"
         id="feBlend14-3" /><feColorMatrix
         in="SourceAlpha"
         type="matrix"
         values="0 0 0 0 0 0 0 0 0 0 0 0 0 0 0 0 0 0 127 0"
         result="hardAlpha"
         id="feColorMatrix15-5" /><feOffset
         dy="0.477944"
         id="feOffset15-9" /><feGaussianBlur
         stdDeviation="0.955888"
         id="feGaussianBlur15-7" /><feColorMatrix
         type="matrix"
         values="0 0 0 0 0 0 0 0 0 0 0 0 0 0 0 0 0 0 0.22 0"
         id="feColorMatrix16-2" /><feBlend
         mode="normal"
         in2="effect1_dropShadow_2550_7120"
         result="effect2_dropShadow_2550_7120"
         id="feBlend16-8" /><feBlend
         mode="normal"
         in="SourceGraphic"
         in2="effect2_dropShadow_2550_7120"
         result="shape"
         id="feBlend17-6" /></filter><linearGradient
       id="paint1_linear_2550_7120-8"
       x1="9.9368496"
       y1="19.322599"
       x2="83.915802"
       y2="102.135"
       gradientUnits="userSpaceOnUse"><stop
         stop-color="#AE7FE2"
         id="stop23-7" /><stop
         offset="1"
         stop-color="#9A70D4"
         id="stop24-7" /></linearGradient><filter
       id="filter2_dd_2550_7120-0"
       x="71.733398"
       y="-5.0058398"
       width="40.002399"
       height="116.013"
       filterUnits="userSpaceOnUse"
       color-interpolation-filters="sRGB"><feFlood
         flood-opacity="0"
         result="BackgroundImageFix"
         id="feFlood17-8" /><feColorMatrix
         in="SourceAlpha"
         type="matrix"
         values="0 0 0 0 0 0 0 0 0 0 0 0 0 0 0 0 0 0 127 0"
         result="hardAlpha"
         id="feColorMatrix17-7" /><feOffset
         id="feOffset17-0" /><feGaussianBlur
         stdDeviation="0.0477944"
         id="feGaussianBlur17-2" /><feColorMatrix
         type="matrix"
         values="0 0 0 0 0 0 0 0 0 0 0 0 0 0 0 0 0 0 0.24 0"
         id="feColorMatrix18-4" /><feBlend
         mode="normal"
         in2="BackgroundImageFix"
         result="effect1_dropShadow_2550_7120"
         id="feBlend18-0" /><feColorMatrix
         in="SourceAlpha"
         type="matrix"
         values="0 0 0 0 0 0 0 0 0 0 0 0 0 0 0 0 0 0 127 0"
         result="hardAlpha"
         id="feColorMatrix19-0" /><feOffset
         id="feOffset19-8" /><feGaussianBlur
         stdDeviation="2.86766"
         id="feGaussianBlur19-3" /><feColorMatrix
         type="matrix"
         values="0 0 0 0 0 0 0 0 0 0 0 0 0 0 0 0 0 0 0.3 0"
         id="feColorMatrix20-2" /><feBlend
         mode="normal"
         in2="effect1_dropShadow_2550_7120"
         result="effect2_dropShadow_2550_7120"
         id="feBlend20-2" /><feBlend
         mode="normal"
         in="SourceGraphic"
         in2="effect2_dropShadow_2550_7120"
         result="shape"
         id="feBlend21-1" /></filter><linearGradient
       id="paint2_linear_2550_7120-8"
       x1="91.420502"
       y1="-1.40212"
       x2="91.420502"
       y2="105.183"
       gradientUnits="userSpaceOnUse"><stop
         stop-color="#D59DFF"
         id="stop25-1" /><stop
         offset="1"
         stop-color="#C18EF1"
         id="stop26-5" /></linearGradient></defs><style
     type="text/css"
     id="style1">
	.st0{fill:#1B1F24;}
</style><circle
     style="fill:#1f1f1f;fill-opacity:1;stroke-width:2.04069;stroke-linecap:square;stroke-linejoin:round;stroke-miterlimit:0"
     id="circle117"
     cx="1454.7928"
     cy="366.73511"
     r="145.64516" /><text
     xml:space="preserve"
     style="font-size:74.6667px;line-height:1.1;font-family:'Segoe UI';-inkscape-font-specification:'Segoe UI';letter-spacing:0px;word-spacing:0px;fill:#fefefe;fill-opacity:1"
     x="127.91549"
     y="981.75775"
     id="text97"><tspan
       sodipodi:role="line"
       x="127.91549"
       y="981.75775"
       style="font-style:normal;font-variant:normal;font-weight:bold;font-stretch:normal;font-size:74.6667px;line-height:1.1;font-family:'Segoe UI';-inkscape-font-specification:'Segoe UI Bold';fill:#fefefe;fill-opacity:1"
       id="tspan96">For C# Developers</tspan></text><circle
     style="fill:#1f1f1f;fill-opacity:1;stroke-width:2.04069;stroke-linecap:square;stroke-linejoin:round;stroke-miterlimit:0"
     id="circle5"
     cx="1630.5664"
     cy="677.22815"
     r="145.64516" /><text
     xml:space="preserve"
     style="font-size:133.333px;line-height:1.1;font-family:'Segoe UI';-inkscape-font-specification:'Segoe UI';letter-spacing:0px;word-spacing:0px;fill:#ffffff;fill-opacity:1"
     x="131.87643"
     y="476.16431"
     id="text123"><tspan
       sodipodi:role="line"
       x="131.87643"
       y="476.16431"
       style="font-style:normal;font-variant:normal;font-weight:bold;font-stretch:normal;line-height:1.1;font-family:'Segoe UI';-inkscape-font-specification:'Segoe UI Bold'"
       id="tspan138">The Official</tspan><tspan
       sodipodi:role="line"
       x="131.87643"
       y="622.83063"
       style="font-style:normal;font-variant:normal;font-weight:bold;font-stretch:normal;line-height:1.1;font-family:'Segoe UI';-inkscape-font-specification:'Segoe UI Bold'"
       id="tspan131">OpenAI library</tspan><tspan
       sodipodi:role="line"
       x="131.87643"
       y="769.49689"
       style="font-style:normal;font-variant:normal;font-weight:bold;font-stretch:normal;line-height:1.1;font-family:'Segoe UI';-inkscape-font-specification:'Segoe UI Bold'"
       id="tspan132">for .NET</tspan></text><g
     style="fill:none"
     id="g12"
     transform="matrix(0.61714174,0,0,0.61714174,1531.8203,578.48852)"><path
       d="m 297.06,130.97 c 7.26,-21.79 4.76,-45.66 -6.85,-65.48 C 272.75,35.09 237.65,19.45 203.37,26.81 188.12,9.63002 166.21,-0.139981 143.24,1.93887e-5 108.2,-0.0799806 77.11,22.48 66.33,55.82 43.82,60.43 24.39,74.52 13.02,94.49 c -17.59001,30.32 -13.580007,68.54 9.92,94.54 -7.26,21.79 -4.76,45.66 6.85,65.48 17.46,30.4 52.56,46.04 86.84,38.68 15.24,17.18 37.16,26.95 60.13,26.8 35.06,0.09 66.16,-22.49 76.94,-55.86 22.51,-4.61 41.94,-18.7 53.31,-38.67 17.57,-30.32 13.55,-68.51 -9.94,-94.51 z M 176.78,299.08 c -14.03,0.02 -27.62,-4.89 -38.39,-13.88 0.49,-0.26 1.34,-0.73 1.89,-1.07 L 204,247.33 c 3.26,-1.85 5.26,-5.32 5.24,-9.07 v -89.83 l 26.93,15.55 c 0.29,0.14 0.48,0.42 0.52,0.74 v 74.39 c -0.04,33.08 -26.83,59.9 -59.91,59.97 z M 47.94,244.05 c -7.03,-12.14 -9.56,-26.37 -7.15,-40.18 0.47,0.28 1.3,0.79 1.89,1.13 l 63.72,36.8 c 3.23,1.89 7.23,1.89 10.47,0 l 77.79,-44.92 v 31.1 c 0.02,0.32 -0.13,0.63 -0.38,0.83 L 129.87,266 c -28.69,16.52 -65.33,6.7 -81.92,-21.95 z M 31.17,104.96 c 7,-12.16 18.05,-21.46 31.21,-26.29 0,0.55 -0.03,1.52 -0.03,2.2 v 73.61 c -0.02,3.74 1.98,7.21 5.23,9.06 l 77.79,44.91 -26.93,15.55 c -0.27,0.18 -0.61,0.21 -0.91,0.08 L 53.11,186.86 C 24.48,170.28 14.66,133.65 31.16,104.97 Z m 221.26,51.49 -77.79,-44.92 26.93,-15.54 c 0.27,-0.18 0.61,-0.21 0.91,-0.08 l 64.42,37.19 c 28.68,16.57 38.51,53.26 21.94,81.94 -7.01,12.14 -18.05,21.44 -31.2,26.28 v -75.81 c 0.03,-3.74 -1.96,-7.2 -5.2,-9.06 z m 26.8,-40.34 c -0.47,-0.29 -1.3,-0.79 -1.89,-1.13 l -63.72,-36.8 c -3.23,-1.89 -7.23,-1.89 -10.47,0 L 125.36,123.1 V 92 c -0.02,-0.32 0.13,-0.63 0.38,-0.83 l 64.41,-37.16 c 28.69,-16.55 65.37,-6.7 81.91,22 6.99,12.12 9.52,26.31 7.15,40.1 z M 110.72,171.54 83.78,155.99 c -0.29,-0.14 -0.48,-0.42 -0.52,-0.74 V 80.86 c 0.02,-33.12 26.89,-59.96 60.01,-59.94 14.01,0 27.57,4.92 38.34,13.88 -0.49,0.26 -1.33,0.73 -1.89,1.07 L 116,72.67 c -3.26,1.85 -5.26,5.31 -5.24,9.06 l -0.04,89.79 z M 125.35,140 160,119.99 l 34.65,20 V 180 L 160,200 125.35,180 Z"
       fill="#ffffff"
       id="path1-27"
       clip-path="url(#clipPath1)" /></g><rect
     style="fill:#8dc8e8;fill-opacity:1;stroke-width:1.65439;stroke-linecap:square;stroke-linejoin:round;stroke-miterlimit:0"
     id="rect124"
     width="750"
     height="125.57484"
     x="133.89474"
     y="164.11499"
     ry="62.787418" /><text
     xml:space="preserve"
     style="font-size:88.4402px;line-height:1.25;font-family:'Segoe UI';-inkscape-font-specification:'Segoe UI';letter-spacing:0px;word-spacing:0px;fill:#000000;fill-opacity:1;stroke-width:0.663303"
     x="202.02145"
     y="257.86511"
     id="text119"><tspan
       sodipodi:role="line"
       x="202.02145"
       y="257.86511"
       id="tspan122"
       style="font-style:normal;font-variant:normal;font-weight:600;font-stretch:normal;font-family:'Segoe UI';-inkscape-font-specification:'Segoe UI Semi-Bold';stroke-width:0.663303">ANNOUNCING</tspan></text><g
     style="fill:none"
     id="g142"
     transform="matrix(1.5345454,0,0,1.5345454,1373.4619,285.40422)"><g
       clip-path="url(#clip0_2550_13722)"
       id="g141"><rect
         width="106"
         height="106"
         rx="2"
         fill="#4122aa"
         id="rect138"
         x="0"
         y="0" /><path
         d="m 18.0605,63.3801 c 0,-0.9509 0.2545,-1.6698 0.7635,-2.1566 0.509,-0.4868 1.2498,-0.7301 2.2225,-0.7301 0.9388,0 1.6626,0.249 2.1716,0.7471 0.5203,0.4981 0.7804,1.2113 0.7804,2.1396 0,0.8943 -0.2601,1.6018 -0.7804,2.1226 -0.5203,0.5094 -1.2441,0.7641 -2.1716,0.7641 -0.9501,0 -1.6853,-0.249 -2.2055,-0.7471 -0.5203,-0.5094 -0.7805,-1.2226 -0.7805,-2.1396 z"
         fill="#ffffff"
         id="path138" /><path
         d="M 48.1563,65.8083 H 41.4718 L 30.6817,47.0276 H 30.529 c 0.2149,3.3169 0.3223,5.6829 0.3223,7.098 V 65.8083 H 26.1518 V 40.9824 h 6.6336 l 10.7732,18.594 h 0.1188 C 43.5077,56.35 43.4229,54.069 43.4229,52.7331 V 40.9824 h 4.7334 z"
         fill="#ffffff"
         id="path139" /><path
         d="M 63.9113,65.8083 H 49.6262 V 40.9824 h 14.2851 v 4.3131 h -9.0257 v 5.4509 h 8.398 v 4.3131 h -8.398 v 6.4018 h 9.0257 z"
         fill="#ffffff"
         id="path140" /><path
         d="M 77.1758,65.8083 H 71.9164 V 45.3635 H 65.181 v -4.3811 h 18.7301 v 4.3811 h -6.7353 z"
         fill="#ffffff"
         id="path141" /></g></g><style
     type="text/css"
     id="style2">
	.st0{fill:#3999C6;}
	.st1{fill:#FCD116;}
	.st2{opacity:0.3;fill:#FF8C00;enable-background:new    ;}
	.st3{font-family:'HelveticaNeue-Medium';}
	.st4{font-size:31.8596px;}
</style></svg>
