<?xml version="1.0" encoding="UTF-8" standalone="no"?>
<!-- Created with Inkscape (http://www.inkscape.org/) -->

<svg
   width="507.33441mm"
   height="286.1337mm"
   viewBox="0 0 507.33441 286.1337"
   version="1.1"
   id="svg1"
   xml:space="preserve"
   xmlns:xlink="http://www.w3.org/1999/xlink"
   xmlns="http://www.w3.org/2000/svg"
   xmlns:svg="http://www.w3.org/2000/svg"><defs
     id="defs1"><linearGradient
       id="linearGradient155"><stop
         style="stop-color:#b53fc4;stop-opacity:1;"
         offset="0"
         id="stop155" /><stop
         style="stop-color:#226dd1;stop-opacity:1;"
         offset="1"
         id="stop158" /></linearGradient><linearGradient
       xlink:href="#linearGradient155"
       id="linearGradient45"
       gradientUnits="userSpaceOnUse"
       gradientTransform="translate(-7246.5746,-4537.3521)"
       x1="134.75134"
       y1="261.68228"
       x2="765.68829"
       y2="396.44553" /></defs><g
     id="layer1"
     transform="translate(-2791.9282,-191.05046)"><rect
       style="fill:#a8cbfe;stroke-width:1.693"
       id="rect5"
       width="507.33453"
       height="286.1337"
       x="2791.9282"
       y="191.05045" /><path
       style="fill:#bb03ec;fill-opacity:0.558233;stroke-width:1.98894"
       id="path5"
       d="m 3275.53,416.93558 a 49.52758,49.527573 0 0 1 -49.5059,49.52757 49.52758,49.527573 0 0 1 -49.5492,-49.48435 49.52758,49.527573 0 0 1 49.4627,-49.57075 49.52758,49.527573 0 0 1 49.5923,49.44109" /><path
       style="fill:#bb03ec;fill-opacity:0.558233;stroke-width:1.98894"
       id="path3"
       d="m 3199.0205,259.75284 a 49.52758,49.527573 0 0 1 -49.506,49.52757 49.52758,49.527573 0 0 1 -49.5491,-49.48435 49.52758,49.527573 0 0 1 49.4627,-49.57075 49.52758,49.527573 0 0 1 49.5923,49.44109" /><path
       style="fill:#bb03ec;fill-opacity:0.558233;stroke-width:1.98894"
       id="path4"
       d="m 3277.6118,309.19775 a 49.52758,49.527573 0 0 1 -49.506,49.52757 49.52758,49.527573 0 0 1 -49.5491,-49.48435 49.52758,49.527573 0 0 1 49.4627,-49.57075 49.52758,49.527573 0 0 1 49.5923,49.44109" /><path
       style="fill:#bb03ec;fill-opacity:0.558233;stroke-width:1.98894"
       id="path1"
       d="m 3197.9795,362.80643 a 49.52758,49.527573 0 0 1 -49.506,49.52756 49.52758,49.527573 0 0 1 -49.5492,-49.48434 49.52758,49.527573 0 0 1 49.4628,-49.57075 49.52758,49.527573 0 0 1 49.5923,49.44109" /><text
       xml:space="preserve"
       style="font-size:33.6957px;line-height:1.1;font-family:'Segoe UI';-inkscape-font-specification:'Segoe UI';letter-spacing:0px;word-spacing:0px;fill:#0f0f0f;fill-opacity:1;stroke-width:0.210597"
       x="2806.6023"
       y="344.73315"
       id="text38"><tspan
         x="2806.6023"
         y="344.73315"
         style="font-style:normal;font-variant:normal;font-weight:bold;font-stretch:normal;font-size:33.6957px;line-height:1.1;font-family:'Segoe UI';-inkscape-font-specification:'Segoe UI Bold';fill:#0f0f0f;fill-opacity:1;stroke-width:0.210597"
         id="tspan2">Razor Tooling </tspan><tspan
         x="2806.6023"
         y="381.79843"
         style="font-style:normal;font-variant:normal;font-weight:bold;font-stretch:normal;font-size:33.6957px;line-height:1.1;font-family:'Segoe UI';-inkscape-font-specification:'Segoe UI Bold';fill:#0f0f0f;fill-opacity:1;stroke-width:0.210597"
         id="tspan47">and Hot Reload</tspan><tspan
         x="2806.6023"
         y="418.86371"
         style="font-style:normal;font-variant:normal;font-weight:bold;font-stretch:normal;font-size:33.6957px;line-height:1.1;font-family:'Segoe UI';-inkscape-font-specification:'Segoe UI Bold';fill:#0f0f0f;fill-opacity:1;stroke-width:0.210597"
         id="tspan1">update</tspan></text><g
       id="g44"
       transform="translate(1823.7362,17.69606)"><g
         id="g43"
         transform="matrix(0.26458333,0,0,0.26458333,2875.0762,1373.8432)"><rect
           x="-7171.5747"
           y="-4301.8521"
           width="739"
           height="182"
           rx="85"
           fill="#000000"
           id="rect42"
           style="fill:url(#linearGradient45);fill-opacity:1" /></g><text
         xml:space="preserve"
         style="font-style:normal;font-variant:normal;font-weight:600;font-stretch:normal;font-size:16.1831px;line-height:1.1;font-family:'Segoe UI';-inkscape-font-specification:'Segoe UI Semi-Bold';letter-spacing:0px;word-spacing:0px;fill:#0f0f0f;fill-opacity:1;stroke-width:0.193216"
         x="1075.2816"
         y="256.48691"
         id="text44"><tspan
           x="1075.2816"
           y="256.48691"
           style="font-style:normal;font-variant:normal;font-weight:600;font-stretch:normal;font-size:16.1831px;line-height:1.1;font-family:'Segoe UI';-inkscape-font-specification:'Segoe UI Semi-Bold';text-align:center;text-anchor:middle;fill:#ffffff;fill-opacity:1;stroke-width:0.193216"
           id="tspan43">BLAZOR</tspan><tspan
           x="1075.2816"
           y="274.28833"
           style="font-style:normal;font-variant:normal;font-weight:600;font-stretch:normal;font-size:16.1831px;line-height:1.1;font-family:'Segoe UI';-inkscape-font-specification:'Segoe UI Semi-Bold';text-align:center;text-anchor:middle;fill:#ffffff;fill-opacity:1;stroke-width:0.193216"
           id="tspan44">COMMUNITY STANDUP</tspan></text></g></g></svg>
