<?xml version="1.0" encoding="UTF-8" standalone="no"?>
<svg
   width="181.41852"
   height="176.24707"
   viewBox="0 0 181.41852 176.24707"
   fill="none"
   version="1.1"
   id="svg44"
   sodipodi:docname="dotnet-blog-thumbnails.svg"
   xml:space="preserve"
   inkscape:export-filename="improving-github-copilot-completions-in-visual-studio.jpg"
   inkscape:export-xdpi="96"
   inkscape:export-ydpi="96"
   inkscape:version="1.4 (86a8ad7, 2024-10-11)"
   xmlns:inkscape="http://www.inkscape.org/namespaces/inkscape"
   xmlns:sodipodi="http://sodipodi.sourceforge.net/DTD/sodipodi-0.dtd"
   xmlns:xlink="http://www.w3.org/1999/xlink"
   xmlns="http://www.w3.org/2000/svg"
   xmlns:svg="http://www.w3.org/2000/svg"><sodipodi:namedview
     id="namedview44"
     pagecolor="#505050"
     bordercolor="#eeeeee"
     borderopacity="1"
     inkscape:showpageshadow="0"
     inkscape:pageopacity="0"
     inkscape:pagecheckerboard="0"
     inkscape:deskcolor="#d1d1d1"
     inkscape:zoom="0.26197916"
     inkscape:cx="354.99007"
     inkscape:cy="-8578.9267"
     inkscape:window-width="1920"
     inkscape:window-height="1009"
     inkscape:window-x="1912"
     inkscape:window-y="-5"
     inkscape:window-maximized="1"
     inkscape:current-layer="svg44"
     showgrid="false"><inkscape:grid
       id="grid248"
       units="px"
       originx="971.98212"
       originy="3877.0225"
       spacingx="1"
       spacingy="1"
       empcolor="#3f3fff"
       empopacity="0.25098039"
       color="#3f3fff"
       opacity="0.12549"
       empspacing="5"
       enabled="true"
       visible="false" /><inkscape:page
       x="0"
       y="0"
       width="181.41852"
       height="176.24707"
       id="page2"
       margin="0"
       bleed="0" /></sodipodi:namedview><defs
     id="defs44"><polygon
       id="path-1"
       points="84.652158,88.341913 0,88.341913 0,46.021103 0,3.7002935 84.652158,3.7002935 " /></defs><style
     type="text/css"
     id="style1">
	.st0{fill:#1B1F24;}
</style><g
     id="Global/Logo"
     transform="matrix(0.3567175,0,0,0.3567175,-3.6603551e-6,-1.3198322)"
     style="fill:none;fill-rule:evenodd;stroke:none;stroke-width:1"><path
       d="m 374.42496,454.85699 c -46.74915,0 -84.65216,-37.90681 -84.65216,-84.66067 0,-46.73269 37.90301,-84.66066 84.65216,-84.66066 46.74915,0 84.65216,37.92797 84.65216,84.66066 0,46.75386 -37.90301,84.66067 -84.65216,84.66067 M 205.56507,260.81474 c -29.22616,0 -52.9076,-23.70499 -52.9076,-52.91292 0,-29.22909 23.68144,-52.91291 52.9076,-52.91291 29.22615,0 52.9076,23.68382 52.9076,52.91291 0,29.20793 -23.68145,52.91292 -52.9076,52.91292 M 378.17082,95.641779 H 236.88636 c -71.99666,0 -130.40664,58.415861 -130.40664,130.440921 v 141.27749 c 0,72.04623 58.40998,130.41976 130.40664,130.41976 h 141.28446 c 72.03898,0 130.40665,-58.37353 130.40665,-130.41976 V 226.0827 c 0,-72.02506 -58.36767,-130.440921 -130.40665,-130.440921"
       id="Fill-12"
       fill="#004880"
       fill-rule="evenodd" /><mask
       id="mask-2"
       fill="#ffffff"><use
         xlink:href="#path-1"
         id="use1-7" /></mask><g
       id="Clip-15" /><path
       d="m 84.652158,46.011579 c 0,23.387509 -18.962084,42.330334 -42.326079,42.330334 C 18.94092,88.341913 0,69.399088 0,46.011579 0,22.645234 18.94092,3.6812449 42.326079,3.6812449 c 23.363995,0 42.326079,18.9639891 42.326079,42.3303341"
       id="Fill-14"
       fill="#004880"
       fill-rule="evenodd"
       mask="url(#mask-2)" /></g><style
     type="text/css"
     id="style2">
	.st0{fill:#3999C6;}
	.st1{fill:#FCD116;}
	.st2{opacity:0.3;fill:#FF8C00;enable-background:new    ;}
	.st3{font-family:'HelveticaNeue-Medium';}
	.st4{font-size:31.8596px;}
</style></svg>
